<?xml version="1.0" encoding="UTF-8"?>
<svg width="512px" height="512px" viewBox="0 0 512 512" version="1.1" xmlns="http://www.w3.org/2000/svg" xmlns:xlink="http://www.w3.org/1999/xlink">
    <!-- Generator: Sketch 62 (91390) - https://sketch.com -->
    <title>favicon</title>
    <desc>Created with Sketch.</desc>
    <g id="favicon" stroke="none" stroke-width="1" fill="none" fill-rule="evenodd">
        <rect fill="#525252" x="0" y="0" width="512" height="512"></rect>
        <g id="sammoniet-v2" transform="translate(-566.000000, -313.000000)">
            <g>
                <g id="Group-2" transform="translate(1.886596, 1.785488)" fill="#3D3D3D" fill-opacity="0.5" stroke="#000000" stroke-width="3">
                    <path d="M676.66869,680.670688 C676.362466,680.568085 676.073111,680.455935 675.799545,680.33384 C675.746447,680.043732 675.699471,679.749239 675.658873,679.450184 C674.658622,672.082192 678.127811,666.351096 681.662284,660.719244 C683.090662,658.443256 684.514348,656.184976 685.562478,653.813926 C689.611831,644.677754 694.981837,635.976528 700.327834,627.323239 C701.307363,625.737728 702.285938,624.153769 703.255093,622.56891 C713.05178,607.080782 724.84391,592.977826 738.33501,580.609295 C739.051043,579.929629 739.765654,579.249969 740.479554,578.570985 C751.032566,568.534113 761.437831,558.653296 773.938128,551.043735 C790.274707,540.854362 807.366448,531.929422 825.063858,524.346983 C830.467903,522.091418 836.106493,520.850461 841.722111,519.622699 C848.683906,518.100618 855.614045,516.60826 861.930291,513.028422 C862.32383,512.722512 862.781344,512.507911 863.269688,512.401184 C869.877813,512.130161 876.215675,511.524855 882.550873,510.920641 C895.523142,509.683422 908.483341,508.461219 921.46191,510.294247 C927.037044,511.089001 932.540381,511.113856 938.040829,511.1432 C940.411718,511.155848 942.782155,511.168649 945.156953,511.240458 C950.190353,511.390734 954.896418,512.773378 959.559104,514.16003 C961.861613,514.844781 964.153278,515.527645 966.46838,516.04015 C972.308529,517.315333 977.677895,519.552539 983.028858,521.790624 C987.313949,523.5829 991.587125,525.374413 996.099615,526.62627 C1003.83918,528.772264 1011.02509,533.138304 1018.11023,537.466736 C1019.67641,538.423544 1021.23791,539.377545 1022.79712,540.301056 C1024.21644,541.137353 1025.64116,541.965179 1027.06604,542.793107 C1035.61223,547.758893 1044.15739,552.736667 1051.61266,559.506653 C1070.81121,576.84789 1087.06398,596.426246 1098.7076,619.438483 C1108.17743,638.046502 1112.86039,657.785952 1116.41414,678.981898 C1119.97239,700.204694 1116.27487,720.087969 1112.54735,739.679445 C1108.27014,761.741683 1097.46777,782.054912 1082.52317,799.8047 C1069.5434,815.192878 1054.78576,828.427264 1037.25719,837.752588 C1013.22224,850.548511 986.810373,857.175451 959.883523,852.387624 C936.089992,848.159423 913.828072,839.752203 895.301705,821.297374 C880.727402,806.950643 869.995253,789.167828 864.09569,769.594351 C860.08391,756.57273 859.327229,741.304675 863.581844,729.503165 C871.878546,706.396319 883.298366,684.551449 909.82871,674.628791 C920.062295,670.605993 930.936565,668.459051 941.931035,668.290798 C960.704015,668.139185 973.834972,677.9059 985.723948,691.389998 C989.541091,695.718262 991.312283,700.774694 993.036543,705.80186 C994.320809,709.546202 995.579445,713.269919 997.826375,716.578693 C998.460415,717.422524 998.830282,718.408965 998.925025,719.42117 C999.021343,720.450193 998.833316,721.505839 998.349533,722.465642 C997.140156,724.964948 996.029645,727.522235 994.921252,730.073588 C989.896917,741.63885 984.838059,752.987487 971.670078,758.830634 C968.158892,760.390284 962.15426,761.009392 956.200191,760.381083 C950.926821,759.824606 945.726299,758.289895 942.324136,755.719535 C938.641327,752.937145 935.642001,748.569643 933.923248,743.904167 C932.209974,739.253562 931.786115,734.331062 933.083566,730.398804 C933.874168,727.950763 935.265667,725.548574 937.073615,723.770896 C938.775203,722.097797 940.839309,720.979231 943.1145,720.776054 C945.086752,720.601397 946.662523,721.465811 947.921799,722.974317 C949.336467,724.66897 950.309042,727.250665 951.10667,729.491459 C953.429068,736.058176 956.360486,742.356087 963.003847,745.722173 C968.295254,748.406078 973.664174,748.171241 977.711086,745.730628 C981.749533,743.29512 984.410245,738.695543 984.410253,732.831276 C984.415202,731.3586 984.448064,729.884275 984.48095,728.41291 C984.684595,719.301467 985.014287,710.243431 977.815274,702.550843 C977.017457,701.698327 976.32754,700.734711 975.635393,699.759888 C974.54101,698.218554 973.458241,696.616462 971.677645,695.612668 C970.547372,694.981025 969.427383,694.342706 968.313462,693.707825 C956.534293,686.99427 945.449773,680.502314 929.60608,687.597974 C914.101252,694.599637 902.278909,704.169096 898.815212,719.641762 C896.195975,731.363449 895.812612,743.117238 898.702903,753.999843 C901.2652,763.64747 906.407544,772.602926 914.833958,780.233802 C915.339641,780.69291 915.84936,781.162018 916.364741,781.636353 C921.896546,786.727599 928.082213,792.593984 937.292627,792.350716 C940.563902,792.254485 943.522099,793.620173 946.546596,795.084182 C949.315124,796.424289 952.148886,797.859186 955.50035,797.708434 C981.701288,796.566701 1003.4662,786.010521 1017.9683,764.598074 C1024.73616,754.6151 1030.56713,742.612097 1028.94947,728.967499 C1028.30625,721.472876 1028.27432,713.987181 1028.84906,706.533985 C1029.26038,695.745391 1024.20566,687.344612 1019.10878,678.725911 C1018.10157,677.022745 1017.08988,675.311789 1016.11157,673.574896 C1007.72216,658.686122 994.346924,649.970947 980.851585,641.293866 C973.452328,636.540106 964.200099,634.615782 955.923264,632.86325 C955.587782,632.792215 955.253845,632.721507 954.928437,632.65239 C940.91182,629.743798 925.853169,628.73077 911.787782,635.384961 C908.246896,637.055782 904.544354,638.234328 900.822952,639.414179 C895.993158,640.945441 891.127401,642.474333 886.581949,645.214533 C870.511036,654.891558 856.829884,666.633149 847.256416,682.846952 C845.237044,686.209265 843.431606,687.949332 841.372425,688.254449 C839.488826,688.533549 837.196704,687.66388 833.996939,684.81557 C824.118924,675.932877 812.138802,670.819622 799.731718,665.493816 C776.687534,655.598816 754.044648,658.175139 731.396635,660.692198 C729.761156,660.873963 728.125579,661.055736 726.490344,661.232948 C712.269071,662.779007 699.229359,670.24078 686.994376,677.968521 C686.712446,678.146063 686.436186,678.32379 686.163884,678.498944 C683.122198,680.455466 680.498593,681.953928 676.66869,680.670688 Z" id="Path"></path>
                    <path d="M199.174933,373.81502 C198.111354,373.960472 197.064659,374.063486 196.034339,374.125613 C196.590934,373.253483 197.150223,372.383001 197.7122,371.514181 C212.683641,348.368244 229.512829,326.478744 248.033467,306.061925 C266.249112,285.582895 285.637983,266.17871 306.111379,247.939214 C312.202772,242.600642 318.187614,237.126756 324.176048,231.649738 C338.030264,218.978681 351.905162,206.292947 367.154544,195.202947 C372.740405,191.192812 378.205192,186.996841 383.670055,182.801139 C392.245073,176.217584 400.820776,169.635446 409.865415,163.755453 C424.325657,154.496328 439.415038,146.069864 454.677503,138.048286 C461.649692,134.424315 468.556506,130.689182 475.460228,126.955797 C480.165014,124.41155 484.868359,121.868099 489.590285,119.360088 C498.520291,114.292901 508.954026,112.545137 519.048256,114.426431 C525.757234,115.853096 532.532019,115.743642 539.282819,115.646979 C547.608522,115.527765 555.896467,115.434236 563.934792,117.960715 C571.872054,120.443937 579.990756,121.854689 588.121003,123.271742 C595.644026,124.58296 603.177005,125.898845 610.591553,128.036664 C619.975368,130.738067 629.333655,133.95351 638.473024,137.094401 C640.293027,137.719874 642.104328,138.342357 643.905395,138.957163 C660.821696,144.876058 677.779737,152.210773 692.992346,162.348074 C696.389623,164.669736 699.838963,166.904294 703.287581,169.138566 C711.963285,174.759334 720.631165,180.382266 728.25274,187.195067 C730.589934,189.289518 732.941581,191.367311 735.292793,193.444736 C751.094346,207.406279 766.858719,221.36451 778.180223,240.145294 C780.839681,244.546601 783.649531,248.892555 786.464036,253.24614 C791.821275,261.532923 797.193357,269.848104 801.599395,278.613152 C810.482145,296.251084 818.495022,314.529672 819.782415,334.609033 C820.099325,339.577662 821.505707,344.218362 822.906056,348.882877 C824.531765,354.298056 826.148516,359.743533 826.267775,365.707492 C826.345091,369.527602 826.001305,373.322359 825.65519,377.10865 C825.179873,382.30833 824.69319,387.492324 825.403832,392.701179 C825.606479,394.139256 825.540466,395.600774 825.46547,397.05666 C825.397638,398.373476 825.318237,399.685375 825.529056,400.968181 C827.83492,415.420772 824.54459,429.158724 821.220757,442.874323 C819.7172,449.078664 818.212973,455.277802 817.255992,461.542738 C816.691631,465.186066 815.347132,468.971292 813.968701,472.821061 C812.854005,475.934254 811.719103,479.091971 811.012901,482.257953 C808.742236,492.331721 800.723661,496.024064 793.070535,499.360426 C791.641432,499.98344 790.232754,500.597032 788.889394,501.251987 C779.787007,505.65374 771.176203,510.768719 762.564323,515.882243 C760.621832,517.035647 758.679325,518.189054 756.732176,519.333837 C744.274718,526.670159 733.449524,536.128794 722.623794,545.57656 C720.322994,547.584501 718.022375,549.592261 715.703858,551.582204 C714.299322,552.781791 713.22398,554.206182 712.136239,555.629153 C710.652024,557.570786 709.146382,559.507566 707.004066,561.039544 C703.102985,563.870231 699.477539,564.607934 696.667047,563.608055 C695.172382,563.076303 693.865943,562.057647 692.841313,560.508913 C691.951244,559.163567 691.269856,557.396792 690.885399,555.184519 C689.325501,546.111938 685.511591,538.008506 681.700805,529.870713 C680.189878,526.644184 678.677181,523.412899 677.295446,520.119016 C667.752486,497.425266 654.876681,476.849284 640.830412,456.971463 C633.487505,446.613634 624.417278,437.694432 615.350743,428.76788 C611.240935,424.721525 607.130852,420.674459 603.177122,416.496208 C586.333099,398.700816 565.766979,385.981667 545.301036,373.305243 C542.356044,371.48114 539.412889,369.658168 536.481833,367.821023 C531.770189,364.863081 526.155641,362.757922 520.562304,360.648999 C517.029808,359.3171 513.504041,357.986261 510.200483,356.458804 C499.146812,351.568863 487.813621,347.337139 476.260282,343.785804 C469.080012,341.464274 461.640913,340.152675 454.259671,338.8465 C447.755468,337.695525 441.295167,336.549387 435.09843,334.760061 C415.726268,329.158333 396.323409,329.807488 376.959548,330.431857 C365.531386,330.800346 354.11533,331.165378 342.722335,330.28584 C333.589347,334.972689 323.696829,336.210715 313.72965,337.426586 C306.073176,338.360579 298.374878,339.287633 290.983306,341.917089 C282.854632,344.825885 274.009673,346.986128 265.248579,349.122928 C262.834796,349.711642 260.42749,350.29876 258.051404,350.897855 C252.612555,352.299972 247.420368,354.618326 242.215692,356.934509 C238.33702,358.660594 234.452074,360.387386 230.459654,361.762964 C226.846143,363.001141 223.421763,364.704412 219.921558,366.440469 C213.688608,369.531934 207.223744,372.714282 199.174933,373.81502 Z" id="Path"></path>
                    <path d="M961.872075,478.829023 C942.168982,470.859374 921.735346,471.670934 901.646999,472.73031 C898.276345,472.921057 894.876089,472.9826 891.466859,473.043928 C879.89777,473.252045 868.207312,473.414169 857.269392,478.961515 C855.809504,479.702905 854.431912,480.088752 853.222339,480.149188 C851.792681,480.220621 850.571241,479.850871 849.620195,479.108928 C848.72276,478.408806 848.039059,477.358577 847.716907,475.900639 C847.463798,474.75516 847.435666,473.328543 847.722733,471.615763 C847.983941,470.038 848.19319,468.437227 848.402943,466.83485 C848.962525,462.560004 849.536957,458.277787 851.012736,454.355361 C854.061404,446.273641 854.541473,437.997885 855.045275,429.686308 C855.223398,426.747683 855.402156,423.80403 855.687363,420.870954 C856.583962,411.00665 856.672029,401.194019 856.761689,391.386668 C856.791748,388.098662 856.821823,384.811235 856.881941,381.52265 C857.415536,366.629877 856.234819,351.751496 853.36383,337.156326 C853.212062,336.45094 853.060539,335.7456 852.909036,335.040349 C848.754959,315.703029 844.628399,296.428069 835.771622,278.126775 C834.542083,275.565774 833.323088,273.000556 832.104523,270.436235 C823.825819,253.01471 815.57422,235.630272 804.127427,219.916257 C784.37888,192.881431 760.52638,170.264208 733.725937,150.040836 C715.635408,136.593004 696.10124,125.205856 675.478012,116.087173 C659.616575,108.964218 643.259718,103.000706 626.537789,98.2440196 C622.346557,97.0572547 618.018671,96.3239903 613.685661,95.5868922 C605.345362,94.1681051 596.997462,92.7152912 589.489352,88.2857138 C585.953146,86.2106055 581.865582,86.167412 577.792654,86.0600399 C576.320736,86.0212366 574.847699,85.9816537 573.394606,85.8640691 L566.399012,85.2979843 L573.014845,82.9550066 C577.957264,81.2046633 582.876945,79.113209 587.773808,77.0324992 C597.067889,73.0833813 606.283646,69.1837317 615.407576,67.6141433 C620.382326,66.7583376 625.125414,64.8787695 629.871428,63.0095201 C638.525866,59.6009124 647.180982,56.2762645 657.068569,58.3893635 C658.924639,58.7855448 661.068606,57.5775173 663.191253,56.5436171 C664.2822,56.0122383 665.370419,55.4849119 666.418621,55.0917779 C667.182573,54.802165 667.929633,54.4103973 668.673666,54.024171 C670.304356,53.1776822 671.92736,52.389674 673.597004,52.2819377 C687.722733,51.389972 701.749984,49.3260602 715.53884,46.1103884 C721.611706,44.7149292 727.879428,44.4054116 734.160324,44.1032786 C743.554634,43.6513795 752.990004,43.238922 761.782709,38.8418064 C763.401077,38.3796689 764.78387,38.2550442 766.163682,38.3647675 C800.210319,36.0418119 834.330632,35.9128983 868.413362,36.8367101 C871.484614,36.9185032 874.579415,36.9385139 877.680326,36.9586667 C887.270903,37.0209959 896.917897,37.0931295 906.123965,38.9341355 C922.233223,41.8404377 937.330923,48.8220187 949.975942,59.2113499 C966.557413,72.7414823 982.271625,87.3013093 997.025517,102.804606 C1008.91212,115.894197 1019.44529,130.106619 1028.49492,145.260059 C1038.83581,162.023905 1047.53374,179.747492 1054.4692,198.188319 C1058.93123,210.164584 1062.50147,222.454543 1065.151,234.959053 C1069.03574,253.382274 1071.83492,271.508429 1071.29596,290.356501 C1071.04246,299.687091 1069.0675,308.614397 1067.08383,317.539686 C1066.16123,321.690828 1065.23823,325.84162 1064.49503,330.036113 C1060.55233,352.115351 1052.46872,372.597464 1042.18308,392.204961 C1035.45678,404.990852 1026.56285,416.498768 1017.69928,427.94748 C1010.40095,437.659344 1002.23357,446.686352 993.298301,454.916689 C985.46566,461.952478 977.289951,468.633586 969.157127,475.278945 C968.224995,476.040593 967.293432,476.801776 966.363199,477.56315 C965.121999,478.618143 963.482455,479.080693 961.872075,478.829023 Z" id="Path"></path>
                    <path d="M1250.83838,470.325701 C1229.19876,496.36607 1201.32921,516.513213 1169.82088,528.894525 C1157.94707,533.576642 1145.67846,537.187513 1133.16381,539.68424 C1121.29914,542.435013 1109.2078,544.094897 1097.04274,544.643201 C1090.52508,545.081184 1084.14979,542.597204 1079.64331,537.861506 C1063.21399,520.988767 1043.03031,509.480276 1022.87969,497.968417 C1022.24548,497.606099 1021.61129,497.243793 1020.97724,496.881333 C1020.01558,496.624373 1019.52169,496.458826 1019.12368,496.165886 C1017.88877,495.314581 1016.1678,495.19022 1014.51514,495.001401 C1012.37794,494.757224 1010.32198,494.44296 1008.88401,493.427617 C1007.64276,492.551181 1006.7409,491.212545 1006.5948,488.954092 C1006.37206,485.582817 1009.32325,482.901673 1012.63706,480.338916 C1013.76051,479.470086 1014.88139,478.609878 1015.77814,477.697338 C1031.02172,462.249051 1046.07459,446.845547 1057.35243,427.868292 C1063.03873,418.319441 1068.11565,408.498593 1073.19222,398.680356 C1075.24374,394.712645 1077.29511,390.745298 1079.38529,386.797674 C1089.01013,368.571474 1093.35721,348.910301 1097.02351,329.530546 C1101.30751,308.648135 1102.22343,287.237975 1099.741,266.092069 C1099.68471,265.711968 1099.55333,265.329409 1099.43068,264.948822 C1099.11867,263.980685 1098.87631,263.026976 1099.01004,262.135465 C1101.47615,246.370414 1097.40912,231.373616 1093.43966,216.57764 C1092.5242,213.165312 1091.61167,209.763425 1090.78045,206.369496 C1088.44432,196.946706 1085.2474,187.758559 1081.2324,178.92618 C1080.14024,176.547852 1079.05457,174.162304 1077.9677,171.774102 C1073.56989,162.110697 1069.15292,152.403354 1064.20655,142.966619 C1054.73455,125.201297 1043.41556,108.484714 1030.43741,93.0942678 C1029.12136,91.499578 1027.82625,89.9084321 1026.52896,88.3145928 C1019.04425,79.1189353 1011.49265,69.8258593 1001.33228,61.6336102 L998.233175,59.1348248 L1002.21064,58.9672304 C1003.26921,58.9226268 1004.30312,58.8617168 1005.31183,58.8023557 C1012.81619,58.3607366 1018.90598,58.2151229 1023.62059,63.966195 C1024.14435,64.5670659 1024.88597,64.933194 1025.68049,64.9845249 C1032.6238,64.3750904 1038.69625,66.9041032 1044.79848,69.5083029 C1049.27772,71.4198706 1053.7722,73.3631257 1058.71087,73.8429212 C1064.84284,74.4323294 1071.06858,77.58474 1076.71747,80.485831 C1077.77602,81.0294703 1078.81387,81.5625333 1079.824,82.0632196 C1088.30248,86.2463812 1096.89316,90.1804893 1105.48531,94.1154966 C1119.26102,100.424461 1133.04009,106.736438 1146.37111,114.069204 C1152.2745,117.312984 1158.2643,120.476062 1164.26081,123.642764 C1173.47008,128.506086 1182.69501,133.378119 1191.64931,138.561318 C1207.85413,148.129661 1223.34326,158.837601 1238.00986,170.610018 C1250.68308,180.547444 1262.82026,190.928576 1274.73556,201.661614 C1278.65712,205.195643 1280.66193,209.911333 1282.62618,214.655492 C1283.43879,216.618153 1284.24937,218.581004 1285.21996,220.444857 C1288.63208,227.001775 1289.96534,234.189073 1291.27663,241.3799 C1292.7507,249.463457 1294.18562,257.558973 1298.93146,264.635112 C1299.7972,266.420962 1300.13965,268.179086 1300.03712,269.940359 C1301.29453,302.089481 1302.08394,334.256992 1300.03204,366.408938 C1299.76903,370.407336 1298.0616,373.95657 1296.29619,377.536402 C1294.93772,380.291055 1293.5489,383.065598 1292.97313,386.147712 C1286.99717,418.174011 1271.32133,445.555665 1250.83838,470.325701 Z" id="Path"></path>
                    <path d="M1272.84295,688.898989 C1263.8416,689.687275 1254.84198,690.458789 1245.81492,688.892163 C1244.27999,688.632838 1242.72012,688.638162 1241.16552,688.636555 C1239.9943,688.635345 1238.82551,688.632522 1237.66256,688.538196 C1234.90296,688.301619 1232.17266,688.288093 1229.45519,688.273074 C1221.76872,688.230592 1214.1981,688.134788 1206.37344,683.553362 C1201.69147,680.808284 1196.00205,679.221305 1190.2686,677.602916 C1186.90906,676.654614 1183.53268,675.700039 1180.31152,674.522341 C1176.74912,673.203672 1173.45212,671.439371 1170.14232,669.662875 C1166.46881,667.691157 1162.77934,665.702196 1158.65023,664.364365 C1154.03513,662.868708 1150.80546,659.802951 1148.53126,655.975056 C1145.63942,651.107548 1144.32305,644.98581 1143.58994,639.513871 C1142.63796,632.523744 1139.91953,626.321036 1137.23079,620.141642 C1135.67787,616.572639 1134.13069,613.011823 1132.90494,609.327217 C1130.46624,602.047181 1126.13039,595.405514 1121.4558,588.210114 C1119.25278,584.819103 1116.97291,581.308957 1114.76854,577.562065 C1114.11372,576.449021 1113.48039,575.340299 1112.866,574.23795 C1113.99843,574.663574 1115.18252,575.035518 1116.42526,575.346257 C1126.80827,577.94246 1135.58955,574.842021 1144.30419,571.837676 C1149.96306,569.886796 1155.59882,567.95933 1161.58732,567.419417 C1168.32171,566.835891 1176.30467,563.012915 1183.52721,559.594955 C1184.14563,559.302295 1184.75856,559.012238 1185.36487,558.726863 C1187.38318,557.777086 1189.40603,556.838396 1191.42883,555.899733 C1201.58227,551.188123 1211.73693,546.480926 1221.30089,540.349118 C1239.58256,529.057345 1256.17254,515.275265 1270.60932,499.389963 C1279.60825,489.173941 1287.19117,477.927897 1294.7406,466.666087 C1301.39922,456.733144 1306.36383,445.881364 1311.31359,435.077506 C1311.97373,433.636634 1312.6335,432.19655 1313.29681,430.759496 C1320.46493,415.609412 1325.57934,399.585576 1328.5111,383.097606 C1328.64892,382.267207 1328.787,381.436573 1328.92512,380.605711 C1334.10487,349.446333 1339.37242,317.960515 1332.96903,286.42151 C1332.32469,283.427863 1331.86638,280.409797 1331.40166,277.343056 C1330.54566,271.694172 1329.67157,265.874339 1327.48514,259.72988 C1327.10708,258.667426 1326.70473,257.637281 1326.28385,256.635566 C1327.34933,256.972896 1328.42345,257.376109 1329.50581,257.855527 C1337.5047,261.398507 1342.11856,267.404502 1346.3261,272.955388 C1347.0101,273.85777 1347.68363,274.746488 1348.3634,275.609984 C1361.3929,291.64339 1373.32298,308.540056 1384.07193,326.184253 C1386.87605,330.949892 1389.71687,335.665302 1392.55848,340.382068 C1401.24146,354.794869 1409.92995,369.221189 1417.27711,384.559479 C1419.6123,389.433768 1422.28667,394.320986 1424.9576,399.203481 C1428.61474,405.888794 1432.26422,412.565898 1435.05686,419.190215 C1441.79578,435.299421 1447.55169,451.802567 1452.292,468.605588 C1452.5221,469.414398 1452.75293,470.221284 1452.98332,471.02662 C1456.64295,483.819212 1460.15966,496.227812 1459.03656,509.700098 C1459.10181,512.584831 1458.70511,515.461611 1457.86134,518.221289 C1455.51367,523.938834 1453.63649,529.719636 1451.76328,535.483453 C1449.26551,543.169014 1446.77284,550.823912 1443.33516,557.964936 C1430.07241,585.461137 1414.2178,611.407326 1391.9279,633.180903 C1376.52451,648.210315 1359.13961,661.063609 1340.25935,671.382041 C1339.89342,671.583296 1339.52475,671.786662 1339.15335,671.991534 C1331.24344,676.354832 1322.1176,681.324489 1311.85963,681.487052 C1308.10657,681.553785 1303.56736,681.978783 1300.50686,685.561197 C1298.9322,687.280386 1296.76433,688.245842 1294.48571,688.266533 C1287.16325,687.637309 1280.00289,688.271964 1272.84295,688.898989 Z" id="Path"></path>
                    <path d="M1346.09574,873.480497 C1342.27203,876.120854 1337.77151,875.966186 1333.12568,875.690727 C1330.35345,875.526357 1327.538,875.337394 1324.85336,875.976701 C1322.18851,876.617401 1319.54116,877.308435 1316.89606,877.998788 C1306.05793,880.827457 1295.25601,883.62436 1283.48423,883.054417 C1277.31997,882.755429 1271.76457,880.932546 1266.22653,879.09732 C1261.80871,877.633319 1257.40254,876.1636 1252.67024,875.562698 C1221.02086,871.49625 1196.68412,852.456207 1174.04978,832.18815 C1160.63874,820.157219 1150.74311,804.324674 1143.06531,787.509052 C1142.17355,785.113439 1140.64958,783.130757 1138.65162,781.720051 C1136.97482,780.571882 1136.14733,779.153132 1135.90119,777.614503 C1135.64549,776.016134 1136.05391,774.231487 1137.00205,772.417892 C1146.04023,754.903385 1151.47051,736.552934 1150.57748,716.629457 C1150.45439,713.18387 1150.4928,709.743847 1150.53363,706.141336 C1150.55455,704.295839 1150.57598,702.407287 1150.57598,700.454512 C1150.57598,699.669421 1150.57252,698.894711 1150.57276,698.129111 C1151.27612,698.449663 1151.98167,698.768513 1152.68941,699.085678 C1214.69776,726.874059 1275.20553,733.538493 1338.81851,707.49046 C1401.60498,681.684578 1441.53568,635.282772 1470.43641,574.000388 C1471.14905,572.489274 1471.85045,570.978742 1472.53919,569.480463 C1472.71976,571.063192 1472.9508,572.688166 1473.26703,574.361698 C1474.02516,578.373864 1475.13731,581.947525 1476.18979,585.338238 C1477.80959,590.55671 1479.27707,595.361634 1479.27707,600.598107 C1479.25942,606.5756 1479.36763,612.562477 1479.47572,618.549158 C1479.7077,631.396788 1479.93733,644.243408 1478.93979,656.998966 C1478.36559,664.127956 1477.39385,671.209612 1476.41853,678.311651 C1475.04473,688.315217 1473.66227,698.359569 1473.40345,708.638519 C1472.98425,725.287023 1468.91786,741.560146 1464.89517,757.608753 C1464.6378,758.635527 1464.38066,759.661381 1464.12505,760.68512 C1463.40299,763.587474 1462.79716,766.542773 1462.1887,769.508786 C1460.28909,778.76851 1458.33731,788.115856 1452.99386,796.36632 C1451.53399,798.614915 1451.25203,801.196717 1450.91485,803.819916 C1450.38481,807.943497 1449.76137,812.152504 1446.04551,815.812638 C1430.41173,831.57946 1412.23442,844.600052 1392.27633,854.328008 C1389.56334,855.61656 1386.91538,857.020794 1384.26734,858.424515 C1381.14693,860.078643 1378.02633,861.731869 1374.82744,863.191612 C1370.84876,865.013869 1366.65083,866.082202 1362.45632,867.141214 C1356.79072,868.571641 1351.12249,869.970675 1346.09574,873.480497 Z" id="Path"></path>
                    <path d="M1420.3843,877.461723 C1418.4935,880.764382 1416.64782,884.078331 1414.80722,887.383073 C1410.39543,895.304332 1406.01189,903.172462 1401.1141,910.709839 C1400.41411,911.787139 1399.71493,912.876828 1399.01277,913.971134 C1394.88167,920.409448 1390.64114,926.998057 1385.564,932.219794 C1379.67029,938.263762 1374.6432,944.950914 1369.60519,951.64586 C1364.66818,958.206589 1359.7211,964.774953 1353.97649,970.776316 C1349.1158,975.886956 1344.49427,981.317438 1339.86253,986.75871 C1333.8351,993.839623 1327.78997,1000.93806 1321.19281,1007.38997 C1313.934,1014.48896 1305.99278,1020.75603 1298.05432,1027.01733 C1293.22181,1030.82887 1288.39078,1034.63873 1283.71985,1038.63808 C1282.1508,1039.83118 1280.31914,1040.44444 1278.44099,1040.43951 C1272.42601,1040.43951 1266.44351,1041.13061 1260.46019,1041.8185 C1250.59089,1042.95314 1240.7214,1044.06678 1230.70964,1042.26297 C1224.18761,1041.02688 1217.57016,1040.45998 1210.94763,1040.56859 C1203.36536,1040.78407 1196.50734,1038.29373 1189.60829,1035.7508 C1184.22422,1033.76627 1178.81454,1031.75542 1172.96782,1031.17796 C1166.66609,1030.56863 1158.89172,1026.11679 1152.19824,1021.90165 C1149.83485,1020.40846 1147.46375,1018.93067 1145.09241,1017.4527 C1138.4401,1013.30659 1131.78609,1009.15876 1125.29251,1004.66977 C1115.99019,997.944179 1107.53981,990.162721 1100.0913,981.469512 C1091.5236,971.921056 1086.16741,960.470449 1080.77972,948.900685 C1079.6482,946.470804 1078.51451,944.036159 1077.34702,941.613446 C1068.71117,923.673291 1069.11279,905.286481 1069.56593,886.88207 C1069.73388,880.060761 1069.90309,873.23906 1069.59106,866.443657 C1069.36732,861.764647 1072.10374,857.516431 1076.7046,853.921382 C1077.53977,853.269686 1078.37653,852.618903 1079.21362,851.967862 C1092.77415,841.421243 1106.4603,830.833082 1114.73273,815.025024 C1115.32008,813.904017 1115.94901,813.104659 1116.5796,812.571481 C1117.43866,811.845121 1118.33302,811.553471 1119.22913,811.577893 C1120.7366,811.618975 1122.43763,812.693967 1124.07499,815.055235 C1125.43136,817.02515 1126.77525,819.007541 1128.11977,820.990873 C1132.8662,827.99246 1137.61888,835.007063 1142.9667,841.51614 C1149.08518,848.494591 1155.60736,855.10837 1162.49969,861.32345 C1174.27977,872.838021 1187.87826,882.234973 1202.76103,889.155604 C1211.30241,892.985035 1220.22947,896.906377 1229.03809,900.345861 C1249.18259,908.074909 1270.7756,911.295698 1292.2983,909.781682 C1294.06652,909.675431 1295.81962,909.574093 1297.57283,909.472751 C1317.22289,908.336902 1336.89059,907.217985 1356.37494,900.474834 C1362.27058,898.458104 1368.0574,896.109644 1373.85046,893.759493 C1383.43501,889.8712 1393.03728,885.9816 1403.1565,883.535032 C1405.28125,883.014898 1407.11737,881.52515 1409.03409,880.036219 C1411.95662,877.765966 1415.02375,875.489756 1418.98049,875.219932 C1419.88539,875.158223 1420.75844,875.2068 1421.60502,875.341027 C1421.19687,876.046558 1420.78983,876.753377 1420.3843,877.461723 Z" id="Path"></path>
                    <path d="M1226.55556,1071.49459 L1227.58927,1074.29467 C1223.41535,1076.33354 1219.29916,1078.40612 1215.20507,1080.46752 C1201.28885,1087.47444 1187.62504,1094.34889 1172.83846,1099.35973 C1165.97346,1101.6973 1159.01395,1103.77235 1152.05576,1105.84661 C1140.62597,1109.25387 1129.19908,1112.65735 1118.21249,1117.24066 C1113.82965,1119.08285 1109.40469,1119.18638 1105.00887,1119.25621 C1103.2205,1119.28462 1101.43878,1119.31144 1099.67653,1119.47514 C1094.34185,1119.9929 1089.31923,1121.51775 1084.27014,1123.04075 C1078.68068,1124.72674 1073.06009,1126.41033 1066.99141,1126.86678 C1044.09096,1128.59683 1026.50908,1120.01344 1009.4072,1106.33333 C989.821821,1090.65114 972.587406,1073.02844 959.56757,1051.74662 C948.925355,1034.3172 942.635825,1015.36191 938.90838,994.745557 C937.010018,984.318839 938.019332,975.423844 939.107685,965.999466 C939.284858,964.465266 939.463696,962.916814 939.632036,961.338484 C941.903794,940.870792 951.512035,924.093656 961.436816,906.847044 C961.619629,906.529364 961.802536,906.21152 961.982077,905.899455 C967.231791,896.676215 974.452296,894.042037 982.628582,891.163015 C984.564553,890.481324 986.553359,889.781582 988.576988,888.959569 C994.565268,886.522969 1000.90827,886.001961 1007.21442,885.507247 C1015.56979,884.851773 1023.88339,884.280757 1031.0318,878.540163 C1032.36511,877.467657 1033.66362,876.81881 1034.8423,876.556819 C1036.26586,876.2404 1037.54825,876.455645 1038.62861,877.142168 C1040.32154,878.217954 1041.65071,880.656064 1041.72733,884.925512 C1041.81211,889.227619 1041.71489,893.531452 1041.61718,897.837009 C1041.3976,907.512217 1041.16618,917.197686 1043.08457,926.891092 C1045.83642,939.343514 1049.82438,951.490077 1054.98914,963.150076 C1060.59932,976.094168 1067.98591,988.179488 1076.939,999.065743 C1091.08661,1016.92268 1108.52211,1030.69945 1127.74625,1042.57686 C1142.22471,1051.51777 1157.86812,1059.32203 1173.88251,1062.70465 C1179.06926,1063.79505 1184.19826,1065.44847 1189.35012,1067.11224 C1201.25541,1070.95702 1213.29493,1074.92181 1226.55556,1071.49459 Z" id="Path"></path>
                    <path d="M939.420249,886.726484 C939.109978,887.18679 938.801468,887.648368 938.49473,888.111208 C927.847266,904.177245 919.43182,921.615794 913.479329,939.948304 C912.316584,943.395914 912.334477,946.754609 912.328548,950.125288 C912.326783,951.128629 912.324839,952.133395 912.296069,953.144521 C912.265187,954.163809 912.249404,955.180519 912.233605,956.194713 C912.142198,962.06276 912.010205,967.837588 909.2678,973.550571 C907.888229,976.423823 907.425609,981.153627 908.880555,983.818767 C912.073598,989.653982 912.103395,995.659308 912.076798,1001.67307 C912.065207,1004.29391 912.050218,1006.9129 912.342968,1009.51367 C913.670465,1021.44661 918.415762,1032.31589 923.157132,1043.23184 C923.63413,1044.33003 924.111308,1045.42863 924.586101,1046.52992 C929.251983,1056.85766 934.767631,1066.77989 941.076149,1076.19423 C952.266912,1093.8602 966.128428,1109.63575 982.178098,1122.97999 C982.952957,1123.62424 983.732456,1124.26243 984.512779,1124.89445 C983.535341,1125.15911 982.538195,1125.39061 981.525304,1125.60182 C975.969492,1126.7603 970.60387,1127.16966 965.179747,1124.6236 C959.201702,1121.82377 952.820556,1120.93074 946.433035,1120.01525 C943.925225,1119.65582 941.415464,1119.29564 938.930864,1118.82937 C926.423448,1116.52979 914.179903,1112.97399 902.378506,1108.21285 C901.863707,1108.00183 901.360097,1107.68351 900.865902,1107.35945 C900.471282,1107.10068 900.102325,1106.73632 899.67841,1106.73632 C887.487149,1106.28278 877.032526,1101.11698 866.628877,1095.92814 C862.440696,1093.83927 858.260204,1091.75267 853.974023,1090.00039 C846.675507,1087.0259 839.793903,1082.98751 832.924643,1078.95023 C830.440052,1077.48996 827.956846,1076.0304 825.452373,1074.62231 C822.200022,1072.78489 820.933913,1069.66904 819.752587,1066.45652 C819.249142,1065.08744 818.753606,1063.71285 818.015338,1062.48804 C808.8999,1047.31009 804.967694,1030.29486 801.094873,1013.4291 C800.742952,1011.89653 800.39134,1010.36528 800.037348,1008.84234 C796.020434,991.848303 795.969202,974.157447 799.888609,957.136163 C806.586263,928.432296 817.080779,902.338284 842.881573,883.956705 C851.39835,877.864862 860.534432,873.948835 869.68414,870.038957 C873.707087,868.31986 877.731786,866.600558 881.703716,864.688025 C885.366435,863.053213 889.546063,863.28023 892.972851,865.279606 C901.039253,870.183278 909.694584,873.721334 918.402204,877.287494 C924.957192,879.972054 931.542261,882.670874 937.929158,885.947993 C938.428525,886.204218 938.925726,886.463488 939.420249,886.726484 Z" id="Path"></path>
                    <path d="M862.426666,838.686568 C861.838548,838.946766 861.250439,839.209951 860.662335,839.476092 C823.170127,856.442844 794.690833,881.355447 780.428556,920.199467 C766.483953,958.210148 766.314767,996.604888 777.711494,1036.77524 C778.075293,1038.05754 778.448172,1039.3321 778.827438,1040.59623 C777.691864,1039.90277 776.56134,1039.18241 775.436608,1038.43287 C761.684663,1029.26828 751.626717,1017.62485 741.921379,1006.36547 C739.517917,1003.57716 737.135748,1000.81341 734.722463,998.119212 C726.822701,989.299904 719.856715,979.664169 712.886488,970.017848 C709.177293,964.884574 705.466461,959.748653 701.609517,954.733755 C697.930819,949.948759 695.406537,944.541187 692.886681,939.1145 C690.39917,933.75747 687.916708,928.38063 684.198314,923.633101 C682.946447,922.023279 682.33411,919.5561 682.400482,916.916386 C682.466071,914.307795 683.177918,911.559888 684.400431,909.469764 C686.756351,905.42744 687.648142,900.955141 688.546295,896.578279 C689.270689,893.048172 689.994394,889.573329 691.352626,886.381747 C692.742126,883.112874 694.079761,879.807657 695.419394,876.497701 C702.041789,860.135141 708.743566,843.682889 721.766001,830.797747 C723.617796,828.972027 725.435795,827.08724 727.259014,825.197272 C733.170655,819.0692 739.144563,812.89962 746.431277,808.421292 C753.560165,804.372942 760.991865,800.997152 768.680279,798.307499 C781.300037,793.350252 794.845643,791.19235 808.371839,791.982658 C814.940002,792.325192 820.875915,794.67901 826.804802,797.058379 C829.931431,798.313151 833.056501,799.57007 836.279483,800.498455 C840.474281,801.695212 842.114452,806.150998 843.54165,810.986098 C844.132231,812.986885 844.713296,815.000015 845.60773,816.648867 C848.60681,822.16648 852.468113,826.730319 856.803862,831.873132 C858.225125,833.558952 859.697248,835.305211 861.207808,837.163296 C861.623525,837.674655 862.031545,838.181435 862.426666,838.686568 Z" id="Path"></path>
                    <path d="M666.59531,867.074801 C665.665167,868.952447 664.767876,870.8305 663.894619,872.705617 C663.910694,870.641134 663.869377,868.57068 663.753518,866.49245 C663.24786,857.422199 661.347576,848.656969 659.452967,839.889222 C657.118837,829.087485 654.796716,818.282195 654.960122,806.923582 C655.030677,802.380112 655.202932,797.819134 655.375461,793.254183 C655.78799,782.339082 656.205705,771.400842 655.206522,760.628552 C653.847295,746.057403 660.291141,736.218198 669.381304,727.452532 C686.320921,711.53599 706.398893,699.367724 728.328825,691.722625 C740.398024,687.360829 755.158991,687.769227 768.899548,688.612927 C791.692236,690.022448 809.397537,701.053294 824.778488,716.982307 C827.938115,720.270596 830.255951,723.748164 829.000965,728.162269 C827.037947,735.147553 827.205002,742.223193 827.350746,749.28925 C827.403968,751.869559 827.456818,754.449108 827.412988,757.020723 C827.360237,760.500074 827.011,762.35744 825.758617,763.357769 C824.701041,764.202499 822.850366,764.585798 819.162975,763.904761 C804.741312,761.290381 789.877729,758.87857 775.849866,766.355852 C774.645362,767.117373 773.287068,767.603218 771.872213,767.778173 C753.445916,767.989104 739.394596,777.539547 725.326042,787.730138 C707.284348,800.837652 692.572756,817.999992 682.376248,837.834753 C680.361108,841.64041 678.275121,845.393085 676.176226,849.168766 C672.930567,855.007349 669.653599,860.901138 666.59531,867.074801 Z" id="Path"></path>
                </g>
                <g id="Group" transform="translate(1.366707, 0.795159)" fill="#FFFFFF" fill-rule="nonzero" stroke="#C7C7C7" stroke-width="5">
                    <path d="M1410.69153,953.949162 C1397.44374,972.168036 1383.35145,990.627731 1368.37655,1007.31642 C1350.23479,1027.47302 1330.07531,1045.71689 1308.21271,1061.76308 C1292.3615,1073.4139 1276.14141,1084.47442 1259.76298,1095.34615 C1246.13727,1104.32217 1231.73138,1112.0532 1216.71123,1118.44929 C1213.35436,1119.89335 1210.02732,1121.62064 1206.70368,1123.34877 C1200.0439,1126.81151 1193.4085,1130.32704 1186.50662,1131.19592 C1181.06911,1131.85219 1176.20078,1133.96478 1171.39423,1136.08835 C1166.15357,1138.40371 1160.99482,1140.77149 1155.02443,1140.56164 C1151.79483,1140.45436 1149.11988,1141.98573 1146.55101,1143.61973 C1145.11225,1144.5349 1143.73779,1145.5373 1142.14461,1145.66668 C1134.59972,1146.27512 1127.36372,1148.48063 1120.14117,1150.70277 C1110.64715,1153.62377 1101.1738,1156.61208 1090.92877,1155.37415 C1084.13752,1154.56311 1077.5413,1155.28944 1071.65272,1159.59004 C1070.22305,1160.40873 1068.60154,1160.83496 1066.95268,1160.82434 C1060.93999,1161.12924 1055.05077,1161.54158 1049.15505,1161.95452 C1026.04328,1163.57329 1002.82513,1165.23725 980.402956,1160.03954 C973.527634,1158.44069 966.559517,1157.6353 959.576553,1156.83363 C949.252524,1155.64841 938.889663,1154.48544 928.78143,1150.52461 C921.420102,1147.62383 913.33704,1145.6708 905.23835,1143.7229 C900.421644,1142.56438 895.600021,1141.40577 890.928952,1140.03331 C880.321896,1136.85477 869.884174,1133.13616 859.654267,1128.89096 C844.356601,1122.42921 829.538221,1114.88652 815.311474,1106.32007 C794.826533,1094.44901 775.267057,1081.12661 756.760831,1066.44419 C726.734725,1042.39711 702.907153,1012.73987 681.179703,981.446183 C668.770223,963.520238 659.800343,943.513976 650.816887,923.512045 C650.503955,922.815291 650.191025,922.118545 649.877897,921.421696 C649.400886,920.347228 648.918411,919.270764 648.435206,918.192685 C644.842595,910.177212 641.18701,902.076237 639.556846,894.035898 C638.437002,888.539293 636.590403,883.198484 634.736159,877.858464 C631.394893,868.235985 627.960467,858.612168 629.444176,847.920589 C630.513611,840.176539 628.40111,832.952428 626.189159,825.660836 C624.547697,820.249835 622.86118,814.801286 622.78169,809.013451 C622.771254,808.200373 622.7607,807.387472 622.750149,806.574724 C622.574403,793.037669 622.398508,779.543323 622.780926,765.983898 C622.990366,759.855016 624.704027,753.985377 626.388948,748.124542 C628.944008,739.237006 631.397721,730.377869 629.519313,720.832286 C629.515011,719.463637 629.826474,718.111451 630.430605,716.881372 C632.957074,709.253801 635.048646,701.846903 637.13928,694.440659 C641.212347,680.011477 645.274244,665.581518 651.652693,651.947493 C654.694836,645.45788 658.21467,639.191764 661.734549,632.920994 C664.31196,628.329259 666.889923,623.735312 669.291081,619.049111 C669.557213,618.527193 669.825852,618.010423 670.093136,617.496205 C672.901951,612.092426 675.450259,606.932938 674.376134,599.631263 C671.673117,581.271325 664.778047,564.56911 657.821017,547.781845 C656.053718,543.517366 654.283852,539.246988 652.582175,534.941112 C643.973578,513.15497 631.041497,494.414418 617.735926,475.77593 C600.531154,451.688797 578.604457,432.453589 554.636205,415.098763 C535.523477,401.194491 514.35103,390.982911 493.019793,381.581391 C487.679105,379.236039 481.656012,377.561537 475.661575,375.904742 C470.901208,374.589029 466.160405,373.283158 461.828811,371.617501 C448.659719,366.551587 435.03684,365.15888 421.451262,363.798779 C410.216395,362.674017 399.009675,361.568476 388.140207,358.224088 C379.913144,355.696766 370.714819,357.353321 362.306555,360.084519 C350.621218,363.899169 338.331001,365.518193 326.057856,364.859784 C319.366795,364.439771 312.71226,366.128886 307.030772,369.689731 C305.242613,370.788018 303.001983,372.426917 301.094786,372.190324 C291.601034,371.010182 283.219986,374.482093 274.969506,378.017683 C271.676573,379.428809 268.406408,380.835126 265.080735,381.871527 C249.952154,386.73941 235.288131,392.881659 221.225436,400.238796 C210.006715,406.023162 199.076411,412.26177 188.15561,418.495823 C181.622613,422.225132 175.092953,425.952652 168.507753,429.577909 C151.226592,439.074701 142.59331,455.098275 134.471868,472.028808 C130.30017,480.729081 125.673214,489.260092 121.061814,497.764588 C120.180026,499.390811 119.298771,501.016053 118.421839,502.640284 C112.9397,512.782997 108.569298,523.384348 104.208338,533.974725 C100.53884,542.88592 96.8754158,551.788832 92.5336467,560.389394 C87.2470254,570.841506 84.1649846,581.97503 81.0952127,593.125646 C79.0688649,600.486136 77.0445242,607.852514 74.3420892,615.023349 C71.2552839,623.267445 69.0477915,632.059627 66.8467125,640.848922 C65.4000986,646.625506 63.9550074,652.400343 62.2489593,658.01216 C60.6937504,663.145241 59.9266891,668.466676 59.1703337,673.782263 C57.983195,682.125352 56.8667381,690.477004 52.1641814,697.915684 C50.5510643,700.480572 50.4079202,703.498207 50.3987922,706.568979 C50.3948043,707.910586 50.4059858,709.254131 50.1616205,710.531202 C46.7558369,728.571463 43.0672619,746.562533 39.0958172,764.504378 C38.5921233,766.691971 37.9471302,768.852572 37.3042287,771.012022 C35.5020417,777.065411 33.7756613,783.108521 34.6063423,789.600211 C36.8105216,806.681227 34.9501726,823.811078 33.1480038,840.61294 C33.0529725,841.498929 32.9580378,842.38402 32.8637114,843.268827 C32.6110059,845.645328 32.3401495,848.020072 32.0694223,850.393898 C30.8018514,861.508379 29.5477292,872.603024 30.1010145,883.762851 C31.1553944,904.576595 33.0045776,925.353383 34.8726441,946.127655 C35.8067718,956.632985 35.3524626,967.118956 34.904843,977.615928 C34.594308,984.89818 34.2850979,992.18579 34.4193465,999.489341 C34.3651516,1005.87823 35.2963144,1012.2374 37.1801233,1018.34266 L37.6178697,1019.65385 C41.1302845,1030.2151 44.3464014,1040.87138 42.6286361,1052.39959 C42.0731975,1056.5129 43.7072794,1061.20852 45.3043948,1065.26344 C47.4531575,1070.73862 48.0044067,1076.54965 48.5756352,1082.25111 C49.0266388,1086.7526 49.4824512,1091.19318 50.5878103,1095.38943 C56.8432281,1119.24833 64.8592216,1143.40713 91.5937398,1153.54627 C93.2746178,1154.17891 94.7529165,1155.22799 96.2458079,1156.25664 C99.7923019,1158.70029 103.38277,1160.96 108.445539,1160.32607 C113.858039,1159.92662 119.290818,1159.87992 124.709431,1160.18627 C135.923599,1159.56679 146.790496,1158.09803 157.495098,1155.79358 C163.439884,1154.62775 169.311151,1152.94678 175.187323,1151.26116 C186.540244,1148.00451 197.912191,1144.69293 209.936566,1145.42654 C213.880105,1145.66118 217.030123,1144.00592 220.095154,1142.25835 C222.090291,1141.12079 224.026267,1139.88929 226.374727,1139.88929 C238.302107,1139.71394 249.640918,1136.58167 260.939375,1133.43237 C266.481112,1131.88768 272.013137,1130.34378 277.601151,1129.17813 C289.101262,1126.77923 300.808048,1123.87311 312.527641,1120.96317 C317.978725,1119.60969 323.432613,1118.25548 328.871362,1116.95136 C332.845396,1115.99556 336.874865,1115.11752 340.908195,1114.23843 C349.724853,1112.31679 358.55866,1110.38683 366.89438,1107.65875 C375.989725,1104.65883 385.384448,1102.65508 394.669501,1100.66983 C399.442288,1099.64935 404.186783,1098.63457 408.851728,1097.4978 C413.427597,1096.37825 417.999966,1094.86556 422.608164,1093.33807 C434.068973,1089.53914 445.770006,1085.54777 458.429774,1088.11891 C459.347303,1088.30165 460.285867,1088.41406 461.209073,1088.52198 C462.708389,1088.69723 464.211617,1088.74273 465.289968,1089.52851 C465.889944,1089.9657 466.22829,1090.71192 466.404399,1091.8075 C466.625919,1093.18983 466.433995,1094.22141 465.837744,1095.0274 C464.786414,1096.44855 462.926246,1097.28892 460.99108,1098.28963 C450.447129,1103.76912 439.31622,1105.81933 428.202426,1107.90086 C421.167684,1109.21841 414.135963,1110.54068 407.308343,1112.62765 C403.162591,1113.88887 399.023289,1115.17526 394.885261,1116.46126 C376.988671,1122.0231 359.1172,1127.58293 340.833617,1131.03695 C333.638772,1132.42567 326.784385,1134.6874 319.946051,1136.95098 C314.739649,1138.67436 309.542564,1140.39745 304.202714,1141.70262 C297.500798,1143.33449 290.735361,1145.44608 283.986835,1147.55423 C278.647366,1149.22221 273.318539,1150.88762 268.040421,1152.30135 C261.376516,1154.14192 254.726263,1156.18347 248.078941,1158.22448 C242.011849,1160.08733 235.947203,1161.94968 229.890778,1163.65139 C227.229767,1164.38567 224.520468,1165.05013 221.797778,1165.71824 C213.243179,1167.8174 204.571454,1169.97444 196.768727,1174.24675 C195.131985,1175.39737 193.540811,1176.05275 191.864286,1176.32309 C185.278835,1176.36453 179.287025,1178.49677 173.294737,1180.68031 C169.541773,1182.04786 165.788702,1183.4268 161.853412,1184.18095 C158.188575,1184.88364 154.54093,1185.68866 150.895947,1186.49343 C138.415224,1189.24902 125.965395,1192.04648 112.918982,1190.39956 C100.981871,1188.89126 89.7220913,1184.93046 78.5992489,1180.71323 C58.6366897,1173.19006 46.0573626,1157.30136 36.3046777,1139.54983 C31.1286876,1130.10428 27.8391957,1119.56299 24.7691468,1108.78871 C22.5452874,1101.03258 21.5993687,1093.0967 20.6451771,1085.17947 C19.4439988,1075.21291 18.2237801,1065.27748 14.6813872,1055.72272 C12.3133039,1049.43625 12.2555453,1042.73366 12.1480423,1036.03599 C12.0554909,1030.26984 11.9425206,1024.50184 10.6117484,1018.94895 C5.88763969,999.411369 5.91563096,979.643099 5.92055145,959.905822 C5.92329196,948.912974 5.9238434,937.928581 5.13458043,926.995391 C3.29736973,903.419361 2.02217265,879.7471 4.06027529,856.479312 C4.90943875,846.813003 4.71616667,837.07175 4.51844547,827.35176 C4.21163409,812.268887 3.87403639,797.233856 7.68461091,782.625935 C10.2224394,772.77567 11.5963802,762.781771 12.9671453,752.770037 C14.4370192,742.034437 15.9019963,731.277548 18.8807321,720.66873 C20.8027793,713.844734 22.0982752,706.568464 23.3934828,699.269124 C24.7229637,691.776632 26.0516803,684.259115 28.1106103,677.201346 C29.8839216,671.064458 31.2826924,664.831118 32.6818905,658.588822 C34.3809642,651.008679 36.0795332,643.414711 38.4857631,635.97241 C38.9027206,634.704713 39.3250898,633.432066 39.7491345,632.154361 C43.121262,621.993676 46.5877213,611.515378 48.3448291,600.672472 C49.5535458,593.215161 52.246172,585.986836 54.9136222,578.780166 C55.8235621,576.321774 56.7322692,573.86618 57.5846018,571.406032 C60.7621739,561.389352 64.430675,551.604984 68.5966254,542.030576 C71.1017159,536.662237 73.4311858,531.218985 75.7611812,525.773391 C79.6020811,516.796557 83.4425567,507.812297 88.1009926,499.157778 C94.3231426,487.592483 100.018926,475.609373 105.673278,463.711499 C110.886009,453.09688 116.53781,443.118341 122.757676,433.495405 C128.262226,424.751031 133.490765,415.863343 138.718832,406.975711 C141.960751,401.464502 145.202562,395.953361 148.506864,390.482979 C158.80255,372.936772 170.010926,355.980087 182.100578,339.658292 C185.553446,335.147214 188.945262,330.59985 192.333838,326.056721 C200.218609,315.485458 208.084504,304.936242 216.67641,294.925762 C234.796098,274.077938 253.947165,254.149745 274.057815,235.215895 C308.959687,201.567892 346.35796,170.654913 385.94843,142.725943 C411.867768,124.78374 439.199097,108.973201 467.681008,95.4462908 C491.18019,84.1927671 514.73445,72.9571172 538.621065,62.6813224 C545.330799,59.7945944 552.631166,57.0533601 559.70209,54.3972672 C561.374453,53.7690676 563.034083,53.145648 564.669267,52.526632 C573.870142,49.0480972 583.328612,45.6799039 592.5438,42.6444309 C596.107417,41.4773804 599.635938,40.1161868 603.17186,38.7509126 C611.83726,35.4050671 620.544432,31.9932946 629.995519,31.6841976 C634.250343,31.5602492 637.940262,30.020193 641.658701,28.4061674 C644.624631,27.1187759 647.610708,25.7781907 651.075936,25.4883737 C670.544937,24.0185811 689.922151,19.9194964 708.663483,15.7210038 C717.203395,13.8209613 725.791137,13.2432892 734.329638,12.6597245 C743.745223,12.0162155 753.102164,11.3638407 762.286065,9.07474122 C788.925884,2.42592009 815.847915,3.22009946 842.763461,3.98365265 C856.134,4.36295453 869.504075,4.74040286 882.839642,4.23374645 C889.53386,3.98035506 896.095543,5.63240419 902.705561,7.26203031 C908.552308,8.70348067 914.43502,10.1384199 920.446785,10.4566776 C921.888201,10.5382814 923.337244,10.7011685 924.792164,10.8634447 C927.362648,11.1501467 929.949963,11.4300864 932.545039,11.346048 C939.207723,11.1633962 945.832549,12.4070187 951.975647,14.993644 C956.480745,16.7921386 961.488342,17.1279504 966.53195,17.4195044 C970.264274,17.6352576 974.0145,17.8326538 977.511951,18.7947083 C983.610848,20.5244704 989.847369,21.6541088 996.086324,22.7801251 C1005.24917,24.4338498 1014.42191,26.0686169 1023.12309,29.7656171 C1025.47284,30.7714816 1028.29795,30.9639233 1031.09167,31.0941812 C1033.52743,31.2077484 1035.99815,31.1443402 1037.67865,32.3819427 C1043.314,36.5236172 1049.72795,38.2710922 1056.18567,39.9723704 C1060.32716,41.0634404 1064.48116,42.1429869 1068.38929,44.0022305 C1069.50782,44.5365085 1070.63901,45.0907093 1071.78403,45.6516362 C1079.33019,49.3483799 1087.46287,53.2725728 1096.44127,54.0814222 C1100.63373,54.4694807 1104.19404,56.7744266 1107.8092,59.0062946 C1110.17287,60.4655365 1112.55238,61.9239917 1115.06697,63.009856 C1128.77763,68.9736323 1142.11903,75.7802804 1155.46257,82.5862531 C1162.37875,86.1138991 1169.29537,89.6416479 1176.26203,93.0532006 C1222.82772,115.889611 1263.29999,147.213517 1301.26205,182.074801 C1329.0643,207.581496 1356.1736,233.800489 1379.29857,263.663908 C1397.44588,287.226375 1413.08685,312.374058 1428.1594,337.959504 C1437.24667,353.414225 1446.09642,369.107293 1453.74819,385.130961 C1455.2611,388.304415 1456.84334,391.460808 1458.43075,394.627158 C1463.74372,405.224696 1469.13371,415.930489 1472.04545,427.818636 C1473.24231,432.712258 1475.07547,437.583563 1476.92151,442.470814 C1478.63926,447.01842 1480.36819,451.580465 1481.54486,456.198819 C1482.68145,460.644361 1484.1096,465.008466 1485.53835,469.368503 C1488.20685,477.511836 1490.89658,485.638374 1491.49428,494.307097 C1491.38724,495.46792 1491.40948,496.28085 1491.64122,496.929858 C1495.98295,505.472822 1497.06054,514.446293 1498.18552,523.402849 C1499.21763,531.619961 1500.27745,539.829032 1503.42524,547.550342 C1506.77405,555.806611 1506.45514,564.481 1506.20744,573.10198 C1506.19165,573.651439 1506.17587,574.200759 1506.16095,574.749833 C1505.91839,586.646769 1507.34533,598.501887 1510.39919,609.98726 C1513.68378,623.83933 1513.20247,638.318611 1509.00459,651.922554 C1507.07028,658.314608 1506.04576,664.933249 1505.95709,671.597411 C1505.90996,676.896844 1506.12341,682.198238 1506.33771,687.49563 C1506.79081,698.696292 1507.26611,709.881302 1505.11688,720.877801 C1502.57983,733.843089 1500.15442,746.641768 1498.17414,759.654718 C1496.2104,772.28739 1492.68782,784.627719 1487.68801,796.390915 C1485.20867,802.208317 1483.39441,808.330443 1481.59195,814.432528 C1480.88749,816.817402 1480.18419,819.198876 1479.43769,821.565002 C1471.18777,848.046504 1459.55084,873.018334 1447.03915,897.458025 C1436.84744,917.330723 1423.91297,935.766525 1410.69153,953.949162 Z M1216.17468,1082.35102 C1220.26519,1080.29142 1224.37779,1078.22063 1228.54807,1076.18353 L1226.82522,1071.51673 C1213.75786,1074.894 1201.90003,1070.93677 1190.17733,1067.15097 C1184.99176,1065.4763 1179.82875,1063.81389 1174.60813,1062.71637 C1158.70338,1059.35691 1143.17069,1051.59591 1128.79156,1042.71635 C1109.66733,1030.90066 1092.31751,1017.20012 1078.23124,999.420875 C1069.33737,988.606638 1061.99966,976.601269 1056.42334,963.735411 C1051.28837,952.142635 1047.32275,940.066366 1044.58542,927.68607 C1042.68135,918.066182 1042.91888,908.452532 1043.13681,898.850027 C1043.23484,894.530331 1043.33209,890.212368 1043.24702,885.896137 C1043.16102,881.10366 1041.5579,878.478744 1039.68483,877.28849 C1038.39055,876.466034 1036.85542,876.19084 1035.14522,876.570972 C1033.84263,876.860503 1032.40047,877.564362 1030.92491,878.751297 C1023.94291,884.35825 1015.80627,884.861263 1007.6561,885.500639 C1001.24692,886.003436 994.804616,886.547836 988.719987,889.02364 C986.71199,889.839304 984.737882,890.533501 982.816341,891.210111 C974.407254,894.171106 967.0238,896.923798 961.632883,906.395117 C961.455645,906.70316 961.272761,907.020963 961.089972,907.338601 C951.094987,924.70721 941.44543,941.609865 939.156867,962.229169 C938.989537,963.798168 938.811019,965.343733 938.634176,966.875075 C937.534618,976.396483 936.526763,985.382195 938.444443,995.915009 C942.194315,1016.65541 948.527492,1035.72339 959.233979,1053.25807 C972.314831,1074.63963 989.625004,1092.34866 1009.30206,1108.10425 C1026.61297,1121.95158 1044.41605,1130.60473 1067.58663,1128.85427 C1073.72932,1128.39225 1079.42038,1126.69527 1085.07882,1124.98847 C1090.06178,1123.48542 1095.01759,1121.97419 1100.28241,1121.46182 C1102.02599,1121.29984 1103.78208,1121.27442 1105.54464,1121.24642 C1110.06697,1121.17458 1114.61356,1121.04695 1119.11986,1119.15287 C1130.07156,1114.58412 1141.46533,1111.19245 1152.86133,1107.79526 C1159.83182,1105.71733 1166.80355,1103.63839 1173.68068,1101.29669 C1188.51032,1096.27125 1202.2165,1089.37907 1216.17468,1082.35102 Z M1019.00919,429.551087 C1027.90922,418.055084 1036.83468,406.498094 1043.58797,393.660867 C1053.9218,373.961521 1062.03846,353.383277 1065.99934,331.202232 C1066.74026,327.020652 1067.66044,322.884017 1068.5799,318.746974 C1070.57741,309.759419 1072.56022,300.769289 1072.81548,291.373989 C1073.35667,272.447759 1070.5506,254.244445 1066.64937,235.743058 C1063.98942,223.189356 1060.40541,210.851985 1055.92616,198.829519 C1048.96866,180.330061 1040.24486,162.552708 1029.87351,145.737705 C1020.79101,130.529001 1010.21767,116.262197 998.269805,103.105553 C983.487005,87.5718815 967.742004,72.9835278 951.128046,59.4268862 C938.358428,48.9351752 923.109805,41.8821283 906.839293,38.9435822 C897.572544,37.0906053 887.861654,37.0117647 878.206714,36.9490172 C875.112537,36.9289081 872.024456,36.9090093 868.959873,36.8273938 C834.870883,35.9034123 800.743881,36.0321101 766.690428,38.3523077 C765.221482,38.2439954 763.750266,38.3806603 761.855322,38.9377396 C753.19013,43.2710879 743.886288,43.6496073 734.632165,44.0947629 C728.291539,44.3997691 721.965093,44.7174571 715.83478,46.126117 C702.096694,49.3299432 688.124331,51.3857792 674.053874,52.2742547 C672.253004,52.3904577 670.494223,53.2126211 668.732832,54.1269562 C668.023558,54.4951392 667.312382,54.8709268 666.584029,55.1470439 C665.511099,55.5494458 664.393275,56.0893769 663.273245,56.6349215 C661.383954,57.555158 659.472183,58.7592501 657.797207,58.4017236 C647.7074,56.2454075 638.865957,59.5872898 630.02486,63.0694148 C625.343053,64.9133755 620.665862,66.7746376 615.757925,67.6189492 C606.56212,69.2009024 597.270652,73.1219305 587.902629,77.1024667 C583.024686,79.1751378 578.12424,81.2591177 573.200903,83.0027029 L562.174516,86.9076657 L573.833839,87.8511404 C575.304877,87.9701771 576.796085,88.0107392 578.28619,88.0500219 C582.183625,88.1527676 586.112331,88.1487303 589.503129,90.1385112 C597.115981,94.6298859 605.576453,96.1236723 614.037847,97.5630591 C618.335363,98.2941193 622.628268,99.0194582 626.785235,100.196521 C643.459512,104.939653 659.770897,110.886587 675.601421,117.995614 C696.142438,127.077919 715.606528,138.423335 733.632733,151.821444 C760.364762,171.993038 784.149387,194.541187 803.839816,221.496453 C815.249104,237.158984 823.469208,254.490446 831.721204,271.855768 C832.94034,274.42129 834.159909,276.987709 835.390024,279.549909 C844.212752,297.780858 848.313916,316.981423 852.45123,336.240709 C852.601568,336.940533 852.751924,337.640445 852.902521,338.340403 C855.758693,352.859498 856.933317,367.661101 856.401997,382.494702 C856.341823,385.786332 856.311707,389.076804 856.28162,392.367856 C856.192257,402.142732 856.105577,411.922938 855.21283,421.754552 C854.925519,424.710407 854.74583,427.665784 854.566996,430.616134 C854.069273,438.827416 853.6094,447.007116 850.596984,454.992739 C849.094474,458.98621 848.500986,463.34328 847.931291,467.695386 C847.723011,469.286511 847.515425,470.876073 847.256051,472.44276 C846.943603,474.306968 846.984849,475.859915 847.26035,477.106728 C847.641586,478.832062 848.466175,480.061691 849.524986,480.887707 C850.651362,481.766433 852.093926,482.223122 853.792131,482.138271 C855.120654,482.071892 856.637051,481.658555 858.242078,480.843458 C869.040406,475.366908 880.587755,475.239476 892.004734,475.034096 C895.426866,474.972535 898.83998,474.91051 902.223388,474.719042 C922.160021,473.667674 942.450507,472.832297 962.237558,480.80736 C964.132023,481.103427 966.060738,480.560838 967.522624,479.322302 C968.450591,478.562769 969.379889,477.803436 970.309754,477.04364 C978.454628,470.388435 986.642211,463.697152 994.495687,456.642543 C1003.47177,448.374616 1011.67678,439.30672 1019.00919,429.551087 Z M1083.80745,801.439784 C1098.86497,783.555878 1109.73989,763.0867 1114.04896,740.860101 C1117.79896,721.150511 1121.49896,701.151627 1117.92026,679.806873 C1114.34907,658.506871 1109.63462,638.673806 1100.11871,619.975256 C1088.42042,596.854953 1072.09375,577.179546 1052.80284,559.754892 C1045.29685,552.938828 1036.69534,547.919929 1028.08833,542.9188 C1026.6652,542.091891 1025.24224,541.26509 1023.82466,540.429822 C1022.27131,539.509779 1020.71373,538.558131 1019.15145,537.60371 C1011.98568,533.226015 1004.71316,528.823047 996.886699,526.652957 C992.414913,525.412392 988.181074,523.634517 983.934614,521.858399 C978.528258,519.597145 973.101882,517.341812 967.201591,516.053497 C964.912343,515.546712 962.643668,514.869792 960.364048,514.191848 C955.61884,512.780655 950.828231,511.384141 945.706684,511.231232 C943.32396,511.159184 940.945235,511.146236 938.566053,511.133544 C933.110799,511.104441 927.652391,511.082829 922.122926,510.294584 C909.06506,508.450356 896.026796,509.670762 882.975819,510.915487 C876.65978,511.517874 870.341118,512.121908 863.576068,512.414572 C862.966932,512.547698 862.394729,512.810049 861.897591,513.182569 C855.685548,516.687964 848.869373,518.140442 842.028412,519.636105 C836.354223,520.876672 830.658556,522.135556 825.189923,524.418127 C807.448897,532.019253 790.314921,540.965942 773.937803,551.179963 C761.376456,558.826753 750.915424,568.750254 740.310278,578.83671 C739.600749,579.511536 738.890518,580.187032 738.178885,580.862537 C724.62288,593.29077 712.773801,607.461833 702.921851,623.037543 C701.953488,624.621105 700.975711,626.203767 699.996983,627.787982 C694.626952,636.480174 689.235642,645.221933 685.168141,654.399051 C684.138625,656.727992 682.737522,658.943467 681.33516,661.178 C677.673133,667.013098 674.153972,672.959331 675.187851,680.575036 C675.254551,681.066356 675.337663,681.545928 675.436156,682.01447 C675.874486,682.236328 676.350863,682.434973 676.870879,682.609209 C681.02695,684.001734 683.897627,682.470436 687.224756,680.330307 C687.494404,680.15686 687.767963,679.980852 688.047144,679.805041 C700.152352,672.159269 713.044703,664.747425 727.118311,663.217419 C728.754114,663.040146 730.390597,662.858273 732.026982,662.676408 C754.50216,660.178557 776.981676,657.580502 799.857051,667.403016 C812.160479,672.684329 824.051274,677.739721 833.848176,686.549474 C837.412763,689.722551 839.969735,690.540572 842.038887,690.233978 C844.305607,689.89811 846.378297,688.107253 848.643151,684.336069 C858.125199,668.277014 871.692612,656.650752 887.617684,647.061544 C892.094394,644.362785 896.889452,642.865489 901.645061,641.357747 C905.409149,640.164362 909.15303,638.969594 912.734413,637.279663 C926.593232,630.723198 941.429695,631.756261 955.232504,634.619238 C955.56702,634.690238 955.900743,634.7609 956.236006,634.831889 C964.397905,636.560084 973.532068,638.436251 980.830951,643.125524 C994.187175,651.713159 1007.45404,660.315024 1015.76024,675.05613 C1016.74194,676.799027 1017.75715,678.516074 1018.76792,680.225266 C1023.76101,688.668471 1028.76708,696.889516 1028.37043,707.466438 C1027.79305,714.966619 1027.82567,722.500575 1028.47632,730.07556 C1030.06427,743.469612 1024.29835,755.236007 1017.66047,765.02726 C1003.34044,786.170875 981.840803,796.572657 955.976704,797.699711 C952.797008,797.842736 950.121466,796.442283 947.502176,795.174415 C944.325304,793.636649 941.213123,792.240577 937.783112,792.341478 C928.858921,792.577181 922.907012,786.810369 917.561829,781.890883 C917.044763,781.414997 916.533372,780.94436 916.026035,780.483751 C907.754105,772.992773 902.704427,764.20356 900.189286,754.733483 C897.338727,744.000477 897.728212,732.408884 900.311033,720.850166 C903.707514,705.677759 915.358928,696.354031 930.537531,689.499685 C946.029495,682.561554 956.848534,689.018408 968.33818,695.56695 C969.454529,696.203215 970.576965,696.842915 971.709702,697.475934 C973.353097,698.402392 974.330443,699.907418 975.339908,701.329152 C976.058435,702.341128 976.776886,703.339555 977.60502,704.224467 C984.608159,711.707752 984.198656,720.54136 984.001089,729.380894 C983.968061,730.858582 983.935118,732.339242 983.930148,733.818245 C983.930134,739.281103 981.48479,743.590867 977.714541,745.86463 C973.929174,748.147511 968.911118,748.323807 963.976093,745.820666 C957.57033,742.574966 954.802414,736.462522 952.569336,730.148364 C951.731848,727.795583 950.692025,725.099912 949.209361,723.323805 C947.725013,721.54568 945.858099,720.565544 943.546178,720.770281 C941.044873,720.99365 938.76595,722.205984 936.892391,724.048175 C934.977058,725.93144 933.497109,728.472509 932.656776,731.06658 C931.293969,735.197155 931.706707,740.359376 933.504787,745.240183 C935.290711,750.087992 938.416183,754.617908 942.241216,757.50775 C945.766181,760.170887 951.145843,761.788738 956.615137,762.365891 C962.770647,763.015457 968.969484,762.345701 972.595915,760.734859 C986.013591,754.780913 991.230699,743.265406 996.358328,731.462374 C997.459592,728.927431 998.562701,726.386482 999.763999,723.903071 C1000.33291,722.772712 1000.55396,721.529852 1000.44056,720.318306 C1000.32972,719.13405 999.899313,717.97972 999.16199,716.990042 C996.972573,713.759704 995.75529,710.120792 994.50234,706.467753 C992.735945,701.317741 990.902168,696.150552 986.993839,691.718892 C974.898928,678.001229 961.52206,668.127075 942.435622,668.281245 C931.326528,668.451251 920.338828,670.619599 909.99792,674.682485 C883.166998,684.717699 871.55851,706.766742 863.160563,730.15556 C858.841473,742.13591 859.583349,757.637642 863.655429,770.864574 C869.604637,790.602507 880.420969,808.527216 895.109312,822.989757 C913.795488,841.603678 936.234289,850.098675 960.22845,854.362529 C987.376276,859.189647 1014.01056,852.528821 1038.24702,839.625617 C1055.88738,830.240817 1070.74412,816.927025 1083.80745,801.439784 Z M1480.99545,619.521435 C1480.88748,613.541759 1480.77933,607.561887 1480.79695,601.591388 C1480.79696,596.2518 1479.31601,591.351999 1477.66473,586.032121 C1476.62284,582.675519 1475.52005,579.138233 1474.76953,575.166355 C1474.20408,572.17387 1473.91481,569.338103 1473.6976,566.62243 C1472.51915,569.260491 1471.30287,571.911434 1470.05184,574.564172 C1441.26411,635.606942 1401.50532,681.848378 1338.95824,707.555865 C1275.61235,733.494532 1215.36096,726.83279 1153.61825,699.163452 C1152.43118,698.631479 1151.25027,698.09475 1150.07557,697.553185 C1150.08598,698.825188 1150.09587,700.120209 1150.09587,701.444841 C1150.09587,703.393725 1150.07446,705.278514 1150.05358,707.120333 C1150.01257,710.739019 1149.97436,714.194481 1150.09838,717.664564 C1150.98322,737.405447 1145.59246,755.584456 1136.63985,772.936929 C1135.57272,774.979128 1135.14822,776.978682 1135.43363,778.762796 C1135.71813,780.541206 1136.65494,782.195474 1138.59547,783.527903 C1140.42821,784.822136 1141.826,786.640871 1142.67553,788.914723 C1150.41136,805.857426 1160.39068,821.802038 1173.9019,833.922849 C1196.69051,854.329055 1221.20833,873.452089 1253.0627,877.544874 C1257.73132,878.137693 1262.07525,879.593171 1266.43185,881.036886 C1272.05511,882.900353 1277.69762,884.740035 1283.95568,885.043572 C1295.83229,885.618591 1306.73253,882.810908 1317.66848,879.956705 C1320.30735,879.26798 1322.94845,878.578513 1325.60701,877.939324 C1328.19538,877.322945 1330.9128,877.520782 1333.58638,877.679303 C1338.47209,877.968985 1343.17638,878.06095 1347.19453,875.286286 C1352.11267,871.852275 1357.67326,870.50179 1363.22101,869.101118 C1367.47446,868.027224 1371.72944,866.938848 1375.76374,865.091119 C1378.97931,863.623763 1382.11767,861.96179 1385.25559,860.298381 C1387.89064,858.901546 1390.52547,857.503906 1393.23436,856.217243 C1413.28972,846.441876 1431.55595,833.358432 1447.26686,817.515779 C1451.16615,813.674881 1451.86901,809.275516 1452.42658,804.937735 C1452.74398,802.468426 1452.97519,800.022592 1454.35249,797.901188 C1459.76558,789.543193 1461.76348,780.082137 1463.68818,770.700077 C1464.29386,767.747689 1464.89662,764.805899 1465.61536,761.916873 C1465.87069,760.894253 1466.12775,759.868695 1466.38505,758.842217 C1470.42563,742.722247 1474.50198,726.375957 1474.92302,709.654019 C1475.1809,699.412558 1476.56034,689.405041 1477.92912,679.438034 C1478.90699,672.317426 1479.88075,665.217201 1480.45645,658.06958 C1481.45667,645.279865 1481.22801,632.401191 1480.99545,619.521435 Z M1252.12737,471.955156 C1272.72167,447.050467 1288.46848,419.517154 1294.47605,387.32147 C1295.03487,384.330115 1296.3949,381.641703 1297.71295,378.969026 C1299.53785,375.268546 1301.27812,371.594771 1301.54977,367.464904 C1303.60298,335.292527 1302.81576,303.106517 1301.5581,270.938846 C1301.66117,269.026962 1301.28546,267.119355 1300.28186,265.068435 C1295.61409,258.108712 1294.22942,250.137599 1292.78029,242.190833 C1291.4509,234.900728 1290.08547,227.619693 1286.62693,220.973565 C1285.66959,219.135161 1284.87139,217.198837 1284.07001,215.263279 C1282.04771,210.378929 1279.95876,205.544323 1275.9249,201.909085 C1263.99543,191.163291 1251.84394,180.770025 1239.15609,170.82071 C1224.45193,159.018232 1208.92353,148.283141 1192.67017,138.686184 C1183.70472,133.496529 1174.46841,128.618205 1165.24768,123.748823 C1159.25606,120.584708 1153.27113,117.424254 1147.37257,114.183124 C1134.02044,106.838745 1120.21953,100.515786 1106.42158,94.1966386 C1097.83819,90.2656391 1089.2562,86.3356633 1080.78635,82.1567616 C1079.782,81.6589402 1078.74842,81.1280271 1077.6942,80.5866131 C1071.93281,77.6277435 1065.57737,74.4386816 1059.32644,73.8378384 C1054.4916,73.3681293 1050.09539,71.4500273 1045.71088,69.5788856 C1039.47909,66.9193948 1033.27459,64.3748375 1026.19743,64.9714175 C1025.70085,64.9223363 1025.24014,64.6883761 1024.90754,64.3144762 C1019.98158,58.3125569 1013.66326,58.3300821 1005.77297,58.7944121 C1004.76967,58.8534546 1003.74132,58.914082 1002.68844,58.9584463 L996.059319,59.2377702 L1001.22449,63.4024126 C1011.32725,71.5482088 1018.83129,80.7930114 1026.27328,89.936187 C1027.57199,91.5317696 1028.86852,93.1246509 1030.19282,94.7292493 C1043.1217,110.061265 1054.39822,126.713981 1063.83539,144.411219 C1068.77902,153.842649 1073.18754,163.532695 1077.57742,173.178653 C1078.66476,175.567889 1079.75089,177.954468 1080.84353,180.333825 C1084.83158,189.106954 1088.00833,198.237127 1090.32972,207.600464 C1091.162,210.998698 1092.07634,214.40767 1092.9937,217.827087 C1096.92673,232.487241 1100.98606,247.346785 1098.53956,262.986831 C1098.38624,264.009121 1098.6356,265.118976 1098.99877,266.24589 C1099.10277,266.568604 1099.22017,266.891785 1099.26952,267.21438 C1101.73726,288.249385 1100.82534,309.547008 1096.56083,330.33499 C1092.91286,349.617823 1088.59815,369.184963 1079.0209,387.321038 C1076.92971,391.270568 1074.87684,395.240794 1072.82382,399.211393 C1067.75641,409.011916 1062.68917,418.815341 1057.01313,428.346974 C1045.77671,447.254529 1030.77266,462.594907 1015.58622,477.985293 C1014.71759,478.869215 1013.63137,479.698193 1012.54518,480.538202 C1008.89602,483.360311 1005.87574,486.360767 1006.11686,490.010346 C1006.28844,492.662467 1007.37657,494.210626 1008.8271,495.234834 C1010.38471,496.334653 1012.59793,496.719794 1014.92152,496.985267 C1016.395,497.153614 1017.95531,497.211949 1019.06571,497.972457 C1019.56293,498.333477 1020.17054,498.555384 1021.00084,498.739821 C1021.63497,499.102326 1022.26924,499.464678 1022.90353,499.827041 C1042.96888,511.290182 1063.07568,522.739931 1079.4377,539.540186 C1084.14675,544.489177 1090.80774,547.086359 1097.61843,546.632033 C1109.83582,546.080684 1121.97874,544.413855 1133.89427,541.652274 C1146.46295,539.143766 1158.78342,535.517118 1170.70761,530.815141 C1202.37171,518.372617 1230.38001,498.125173 1252.12737,471.955156 Z M772.514823,769.760944 C774.063197,769.569478 775.550185,769.0406 776.871134,768.212205 C790.68338,760.864901 805.320515,763.307762 819.50449,765.879053 C823.696074,766.653216 825.719996,766.074042 826.902601,765.129447 C828.306929,764.007753 828.872253,762.017298 828.932763,758.026212 C828.976775,755.443943 828.923903,752.851833 828.870423,750.258958 C828.726714,743.291601 828.547571,736.312254 830.483563,729.423141 C831.836444,724.664724 829.463218,720.863778 826.019451,717.279777 C810.456302,701.16207 792.533695,690.030753 769.48116,688.605163 C755.605254,687.753152 740.705829,687.368001 728.519782,691.76853 C706.457293,699.45991 686.258178,711.701592 669.207051,727.723023 C659.892989,736.704596 653.339555,746.798086 654.730734,761.71176 C655.725886,772.440599 655.306944,783.335266 654.896064,794.206744 C654.723253,798.779123 654.550801,803.347523 654.480131,807.898384 C654.315599,819.335265 656.645304,830.215064 658.995416,841.090765 C660.878963,849.807321 662.77224,858.520931 663.274957,867.538442 C663.481549,871.244185 663.449054,874.925027 663.276418,878.591328 C664.784682,875.237283 666.3451,871.87248 668.011277,868.509026 C671.062427,862.349775 674.332066,856.469916 677.570145,850.644967 C679.672352,846.863328 681.76157,843.104699 683.785502,839.282281 C693.91041,819.586799 708.518694,802.54497 726.4337,789.529496 C740.326654,779.466103 754.190883,769.977031 772.514823,769.760944 Z M1322.41189,1009.09523 C1329.03069,1002.62216 1335.09667,995.501393 1341.1439,988.397229 C1345.76366,982.970028 1350.37286,977.553241 1355.22099,972.45581 C1360.9909,966.428027 1365.96343,959.829673 1370.92412,953.237471 C1375.93651,946.576565 1380.93601,939.921597 1386.79984,933.908275 C1391.92277,928.639448 1396.2065,921.997018 1400.37431,915.501498 C1401.07542,914.408808 1401.77357,913.320725 1402.47252,912.245016 C1407.38262,904.688705 1411.77785,896.801177 1416.20075,888.85998 C1418.03944,885.558662 1419.88319,882.248135 1421.77203,878.948898 C1422.4046,877.843983 1423.04082,876.742789 1423.67928,875.644408 C1422.32962,875.286939 1420.92088,875.111069 1419.43234,875.212578 C1415.27123,875.496339 1412.02221,877.842926 1408.94052,880.236826 C1407.14338,881.632863 1405.43562,883.065177 1403.43861,883.554042 C1393.27396,886.01159 1383.62477,889.916298 1373.99442,893.823173 C1368.21863,896.166317 1362.44925,898.508268 1356.57117,900.51899 C1337.17289,907.232346 1317.59373,908.334178 1298.03501,909.464747 C1296.28106,909.566132 1294.52721,909.667513 1292.74802,909.774476 C1271.37628,911.277873 1249.93476,908.080822 1229.93086,900.408174 C1221.13147,896.972328 1212.22486,893.059865 1203.7025,889.239039 C1188.92246,882.366281 1175.41777,873.034144 1163.68926,861.571127 C1156.83392,855.389405 1150.34631,848.811583 1144.25974,841.871428 C1138.93088,835.386249 1134.19658,828.396242 1129.46739,821.420077 C1128.12151,819.434744 1126.77626,817.450356 1125.41852,815.478454 C1123.51239,812.729581 1121.50015,811.615574 1119.77626,811.568593 C1118.65611,811.538066 1117.53121,811.887229 1116.45383,812.798187 C1115.74484,813.397651 1115.02808,814.289205 1114.36683,815.551251 C1106.16182,831.23049 1092.56581,841.711112 1079.11958,852.168827 C1078.28207,852.820194 1077.4449,853.471305 1076.6093,854.123329 C1071.69924,857.959984 1068.87463,862.515807 1069.11209,867.481749 C1069.42295,874.251825 1069.25349,881.050009 1069.08612,887.847785 C1068.62906,906.411398 1068.25783,924.947386 1076.96587,943.037509 C1078.13162,945.456621 1079.26342,947.887273 1080.39308,950.313157 C1085.81974,961.966603 1091.22644,973.491478 1099.85123,983.110238 C1107.35162,991.863576 1115.86023,999.698653 1125.24375,1006.48268 C1131.75042,1010.98072 1138.41764,1015.13723 1145.08336,1019.29169 C1147.45297,1020.76858 1149.82234,1022.24529 1152.18401,1023.73738 C1159.01805,1028.04105 1166.96408,1032.54217 1173.39147,1033.16365 C1179.15044,1033.73244 1184.478,1035.72428 1189.78233,1037.67942 C1196.80094,1040.26642 1203.7802,1042.77649 1211.49047,1042.55867 C1218.04329,1042.4517 1224.59041,1043.01283 1231.05222,1044.23745 C1241.16155,1046.05885 1251.12746,1044.94814 1261.0943,1043.80228 C1267.03961,1043.11876 1272.98402,1042.42984 1278.96087,1042.42984 C1281.05548,1042.43534 1283.10033,1041.7507 1284.89012,1040.38801 C1289.55087,1036.39739 1294.37153,1032.59605 1299.1935,1028.79282 C1307.15982,1022.50955 1315.12766,1016.21909 1322.41189,1009.09523 Z M1444.75575,559.389715 C1448.21297,552.208098 1450.72243,544.511503 1453.2342,536.782864 C1455.09952,531.043314 1456.96788,525.286498 1459.33753,519.504007 C1460.20721,516.659595 1460.61887,513.695213 1460.55737,510.72201 C1461.67732,497.146685 1458.15365,484.637172 1454.46464,471.741908 C1454.23438,470.93704 1454.00369,470.130623 1453.77372,469.322283 C1449.02304,452.482476 1443.2538,435.941124 1436.49928,419.794624 C1433.69293,413.137754 1430.02855,406.429557 1426.35479,399.713886 C1423.69256,394.847276 1421.02644,389.976186 1418.69884,385.117749 C1411.33786,369.750606 1402.6343,355.296365 1393.93494,340.85636 C1391.09512,336.142565 1388.25606,331.430133 1385.44583,326.654318 C1374.67605,308.975925 1362.72313,292.046328 1349.66892,275.981426 C1348.9929,275.122868 1348.32313,274.239034 1347.64292,273.341648 C1343.34064,267.665766 1338.60402,261.551779 1330.43069,257.931533 C1328.60935,257.124799 1326.81098,256.527663 1325.03728,256.09372 C1325.76311,257.674673 1326.44588,259.321477 1327.0629,261.055455 C1329.22621,267.134955 1330.08593,272.894359 1330.93283,278.483209 C1331.40007,281.566538 1331.86148,284.600871 1332.50884,287.61076 C1338.88788,319.02949 1333.61808,350.394249 1328.45854,381.432056 C1328.32104,382.259224 1328.18357,383.086166 1328.04636,383.912875 C1325.13021,400.313421 1320.04292,416.252304 1312.90875,431.33074 C1312.24505,432.76865 1311.58488,434.209591 1310.92435,435.651321 C1305.99696,446.406363 1301.05852,457.211339 1294.42986,467.099596 C1286.90765,478.320792 1279.35424,489.528021 1270.38873,499.708047 C1256.01523,515.523883 1239.49747,529.24597 1221.28105,540.497611 C1211.75553,546.60477 1201.64029,551.290356 1191.52779,555.982968 C1189.50336,556.922385 1187.4789,557.861832 1185.45897,558.812371 C1184.85196,559.098071 1184.2384,559.388428 1183.61934,559.681389 C1176.50839,563.046544 1168.65412,566.838717 1162.02088,567.413479 C1155.94821,567.960975 1150.23408,569.905165 1144.49815,571.882609 C1135.965,574.824388 1127.36477,577.911156 1117.18773,575.366454 C1114.9851,574.815702 1112.9718,574.066968 1111.10676,573.164717 C1112.16184,575.108355 1113.26024,577.077057 1114.42653,579.059467 C1116.63867,582.819573 1118.92632,586.34226 1121.13711,589.745233 C1125.76227,596.86454 1130.0634,603.431218 1132.47661,610.635183 C1133.7111,614.346038 1135.2689,617.934596 1136.83372,621.530952 C1139.48604,627.626654 1142.17974,633.742534 1143.11898,640.639144 C1143.86904,646.237639 1145.2328,652.496216 1148.19143,657.476153 C1150.5886,661.511039 1154.00056,664.730552 1158.86183,666.305986 C1162.93272,667.624953 1166.5679,669.590572 1170.18929,671.534308 C1173.53968,673.33259 1176.87831,675.115692 1180.48427,676.450483 C1183.73245,677.638069 1187.13296,678.600472 1190.51683,679.555639 C1196.16466,681.14986 1201.77462,682.701757 1206.38754,685.406351 C1214.38219,690.087302 1222.11059,690.219953 1229.96955,690.263388 C1232.66054,690.278261 1235.3643,690.290596 1238.1085,690.525828 C1239.29096,690.621719 1240.4864,690.625646 1241.68438,690.626884 C1243.17959,690.62843 1244.68041,690.618479 1246.15711,690.866646 C1255.27685,692.449311 1264.36212,691.681376 1273.45008,690.885506 C1280.55199,690.263562 1287.65447,689.628915 1295.01468,690.256821 C1297.57042,690.233614 1300.00196,689.150752 1301.78707,687.201076 C1304.64699,683.853441 1308.91255,683.539186 1312.3973,683.477224 C1322.82228,683.312015 1332.11114,678.295355 1340.15625,673.857478 C1340.52728,673.652811 1340.89558,673.449648 1341.26114,673.248594 C1360.21903,662.887742 1377.67754,649.980025 1393.14615,634.886974 C1415.52077,613.030643 1431.44241,586.990791 1444.75575,559.389715 Z M757.759517,521.185847 C759.707283,520.040701 761.651033,518.886559 763.594767,517.732417 C772.182217,512.6334 780.768036,507.531859 789.844633,503.142577 C791.178464,502.492274 792.574207,501.884667 793.990048,501.267435 C801.942326,497.800657 810.159006,493.890842 812.508315,483.46817 C813.206147,480.339727 814.3294,477.222478 815.430059,474.148489 C816.830857,470.236255 818.190638,466.388196 818.764096,462.686145 C819.717079,456.447387 821.215751,450.276484 822.712515,444.100175 C826.067844,430.25461 829.363626,416.387092 827.034583,401.789393 C826.836336,400.583186 826.919938,399.342735 826.984035,398.098434 C827.062142,396.58215 827.125149,395.060457 826.915483,393.562966 C826.214183,388.422841 826.702539,383.313894 827.170927,378.190013 C827.520421,374.366756 827.865529,370.534916 827.787459,366.677586 C827.666332,360.620176 826.035253,355.086887 824.383715,349.585671 C823.005276,344.994138 821.61227,340.427269 821.300277,335.535709 C820.004196,315.320848 811.956164,296.91274 803.012416,279.153685 C798.590607,270.357265 793.200574,262.01069 787.823717,253.693561 C785.014725,249.348505 782.210248,245.011146 779.555999,240.61846 C768.181178,221.749229 752.352641,207.714613 736.47481,193.685675 C734.125352,191.6098 731.775454,189.533562 729.440004,187.440675 C721.779372,180.59296 713.070487,174.938639 704.351204,169.289637 C700.909485,167.059835 697.466988,164.829832 694.066768,162.506241 C678.784188,152.322314 661.749948,144.949825 644.748337,139.001111 C642.947919,138.386527 641.13727,137.764267 639.317922,137.139019 C630.162738,133.992693 620.788132,130.772096 611.388086,128.066021 C603.939068,125.918263 596.371064,124.594318 588.812598,123.276923 C580.725287,121.867353 572.64873,120.466806 564.753266,117.996661 C556.61382,115.438399 548.221879,115.516653 539.788391,115.637411 C533.112513,115.733001 526.411771,115.849693 519.751363,114.433688 C509.434076,112.510822 498.770078,114.294028 489.640112,119.467382 C484.91703,121.976407 480.211453,124.521055 475.504438,127.066508 C468.605521,130.797294 461.703534,134.529868 454.726101,138.156594 C439.444401,146.188299 424.330264,154.629165 409.831531,163.913007 C400.773768,169.801575 392.176734,176.398795 383.580967,182.998281 C378.124605,187.187456 372.668421,191.377039 367.078818,195.389919 C351.806625,206.496542 337.902828,219.205881 324.021042,231.902154 C318.037825,237.3744 312.058248,242.843573 305.956931,248.190952 C285.466279,266.445888 266.052271,285.874954 247.812847,306.380133 C229.746591,326.296127 213.286782,347.610392 198.586999,370.123272 L194.386719,376.585035 L200.628335,375.679645 C208.427659,374.469333 214.768587,371.36071 220.885783,368.326659 C224.346385,366.610244 227.730948,364.923508 231.303694,363.699299 C235.324981,362.313777 239.236951,360.576349 243.142158,358.838455 C248.291558,356.546871 253.427159,354.248568 258.808109,352.859831 C261.189963,352.259226 263.594457,351.672805 266.005419,351.084779 C274.800768,348.939624 283.679722,346.769098 291.840117,343.848951 C299.16003,341.244988 306.787122,340.334649 314.370629,339.409556 C324.364176,338.19047 334.276307,336.930172 343.445036,332.295092 C354.780499,333.14958 366.140065,332.788332 377.511664,332.421667 C396.770786,331.800676 416.071501,331.139126 435.340535,336.711034 C441.571107,338.51013 448.065904,339.664326 454.605309,340.82153 C461.941419,342.119719 469.335877,343.420209 476.486353,345.731994 C487.99707,349.270228 499.288546,353.486052 510.301678,358.357393 C513.626496,359.894477 517.174378,361.234637 520.729395,362.575028 C526.25847,364.659721 531.812106,366.734074 536.470022,369.658285 C539.403194,371.496757 542.347856,373.320669 545.29436,375.145707 C565.68683,387.776623 586.186538,400.441754 602.970757,418.173964 C606.93248,422.360662 611.050827,426.416158 615.169048,430.470796 C624.193409,439.355825 633.225574,448.230229 640.534504,458.54013 C654.538067,478.357516 667.378868,498.870542 676.893521,521.496978 C678.280183,524.802606 679.79839,528.046309 681.315073,531.28513 C685.087829,539.341711 688.875235,547.361191 690.419749,556.344297 C690.832409,558.718866 691.573176,560.608989 692.527204,562.051008 C693.684415,563.800142 695.16584,564.940746 696.85175,565.540536 C699.893587,566.62272 703.83915,565.934369 708.097199,562.849434 C710.333012,561.250376 711.907172,559.245878 713.450597,557.226787 C714.495631,555.859685 715.523388,554.485783 716.873195,553.332939 C719.195641,551.339628 721.49834,549.330068 723.801212,547.320319 C734.580237,537.913313 745.355495,528.490699 757.759517,521.185847 Z M939.84818,889.653964 C940.357224,888.885864 940.871168,888.121257 941.389973,887.360186 C940.569179,886.913757 939.740379,886.476951 938.905561,886.048606 C932.49316,882.758401 925.88228,880.047716 919.301086,877.352423 C910.64236,873.806289 902.033648,870.291782 893.99669,865.406203 C890.291783,863.244556 885.772937,862.999119 881.789767,864.777364 C877.831392,866.683369 873.820293,868.396498 869.811081,870.109726 C860.59546,874.047769 851.397374,877.998274 842.819691,884.133682 C816.809862,902.664184 806.189475,928.950407 799.434657,957.89926 C795.480152,975.072952 795.531834,992.919299 799.584054,1010.0627 C799.936995,1011.58115 800.288407,1013.11153 800.640127,1014.64324 C804.536592,1031.61195 808.507762,1048.72411 817.67795,1063.99323 C818.38483,1065.16596 818.852632,1066.48315 819.333921,1067.79198 C820.600422,1071.23612 822.00941,1074.52237 825.48038,1076.4833 C827.981099,1077.88928 830.458761,1079.34566 832.937835,1080.80269 C839.848855,1084.86451 846.773775,1088.92425 854.116504,1091.91676 C858.378814,1093.65929 862.536616,1095.73562 866.702447,1097.81334 C877.234737,1103.06634 887.823982,1108.26698 900.198299,1108.72665 C900.448055,1108.72665 900.625042,1109.04675 900.837436,1109.18602 C901.38618,1109.54585 901.947809,1109.89428 902.531973,1110.13369 C914.388041,1114.91686 926.69635,1118.49147 939.269927,1120.80321 C941.765044,1121.27147 944.289001,1121.634 946.811049,1121.99547 C953.100263,1122.89686 959.38812,1123.76216 965.275497,1126.51953 C970.905091,1129.16204 976.47412,1128.77532 982.24932,1127.57109 C983.93246,1127.22013 985.571797,1126.81251 987.151501,1126.29542 C985.870208,1125.28098 984.597589,1124.24922 983.337309,1123.20138 C967.367909,1109.92388 953.575719,1094.22722 942.426771,1076.62788 C936.152148,1067.26413 930.665749,1057.39546 926.02411,1047.1236 C925.549012,1046.02195 925.071534,1044.92265 924.594235,1043.82378 C919.893103,1033.00046 915.173126,1022.22663 913.856726,1010.39343 C913.568171,1007.82992 913.585259,1005.2497 913.596678,1002.66782 C913.624023,996.484838 913.557348,990.322558 910.277694,984.329063 C908.948613,981.894478 909.436455,977.582767 910.689162,974.973736 C913.49759,969.123213 913.659705,963.213776 913.753373,957.200618 C913.769095,956.191314 913.784767,955.179507 913.8155,954.165134 C913.844577,953.143245 913.846655,952.129593 913.848436,951.117376 C913.854176,947.853927 913.820233,944.598495 914.950337,941.247458 C920.874855,923.0011 929.250753,905.6445 939.84818,889.653964 Z M861.594513,841.377474 C862.576261,840.933193 863.558025,840.497187 864.539825,840.069601 C863.881737,839.231777 863.203563,838.383773 862.503634,837.522815 C860.989155,835.659909 859.51325,833.909088 858.088299,832.218894 C853.799143,827.131347 849.973298,822.620376 847.006219,817.161636 C846.143195,815.570686 845.590567,813.624178 845.02063,811.693328 C843.471186,806.444079 841.56098,801.807349 837.073721,800.527154 C833.885526,799.608786 830.792372,798.362828 827.697136,797.120654 C821.670282,794.70197 815.633444,792.326486 808.959708,791.975178 C795.286859,791.176377 781.604128,793.354483 768.855598,798.358799 C761.115867,801.067495 753.634186,804.466483 746.427561,808.559661 C739.069191,813.082027 733.029594,819.304344 727.059201,825.493318 C725.241808,827.377247 723.429693,829.256086 721.583815,831.075974 C708.461649,844.059793 701.68615,860.623232 695.012325,877.112864 C693.674867,880.417445 692.339452,883.717316 690.952208,886.980881 C689.568571,890.232157 688.824717,893.770591 688.086596,897.367593 C687.210146,901.638691 686.356336,906.0102 684.056346,909.956557 C682.755772,912.18014 681.990534,915.103631 681.920687,917.881579 C681.847751,920.782355 682.558018,923.474566 683.928799,925.237304 C687.601524,929.926535 690.044363,935.238498 692.499582,940.525985 C695.050605,946.019793 697.612777,951.489867 701.336617,956.33358 C705.187606,961.340735 708.892478,966.468663 712.595835,971.593858 C719.586588,981.268585 726.574498,990.931518 734.49748,999.776749 C736.906566,1002.46626 739.284544,1005.22524 741.683824,1008.0087 C751.44616,1019.33421 761.570101,1031.03751 775.401938,1040.25534 C777.274437,1041.50321 779.162819,1042.67084 781.063723,1043.7686 C780.417963,1041.70032 779.79329,1039.60703 779.193415,1037.49264 C767.857356,997.536117 768.016205,959.34442 781.887263,921.534211 C796.053837,882.950844 824.360801,858.227247 861.594513,841.377474 Z" id="Combined-Shape"></path>
                </g>
            </g>
        </g>
    </g>
</svg>