<svg height="15" viewBox="0 0 18 15" width="18" xmlns="http://www.w3.org/2000/svg"><path d="m17.5 1.67078024c-.6438879.28338659-1.335784.47497905-2.0621182.5610559.7413128-.44092946 1.3106277-1.13926364 1.5786422-1.97125515-.6936885.40834095-1.462014.70481376-2.279884.86464354-.6548978-.69248984-1.5879879-1.12522453-2.6206153-1.12522453-1.9829364 0-3.59044769 1.59537565-3.59044769 3.56300986 0 .27932097.03174952.55120947.09294415.81198103-2.98387834-.14858579-5.62939391-1.56710687-7.40019752-3.72277612-.30904568.52624401-.48610044 1.13831076-.48610044 1.79128784 0 1.23613979.6338381 2.32674301 1.59720546 2.96574451-.58851824-.01848587-1.14215041-.17882386-1.6262025-.44569386-.00025604.01486494-.00032005.02979339-.00032005.04478538 0 1.72636492 1.23759098 3.16648462 2.8800523 3.49383075-.30130034.08137598-.61847544.12489084-.94589231.12489084-.2314002 0-.45627126-.0222974-.67550935-.0639065.45691137 1.41559891 1.7828377 2.44572597 3.35386261 2.47456647-1.22875745.9556119-2.77680237 1.5251802-4.45895058 1.5251802-.28977834 0-.57558799-.0168342-.85646878-.0497404 1.58894802 1.0109425 3.47612385 1.6007753 5.50367607 1.6007753 6.60396323 0 10.21521453-5.42925758 10.21521453-10.13775656 0-.15449365-.0035206-.30816147-.0103698-.46093994.7014338-.50235847 1.3101156-1.12992541 1.7914792-1.84445856" fill="#00586f" fill-rule="evenodd"/></svg>