<svg height="11" viewBox="0 0 13 11" width="13" xmlns="http://www.w3.org/2000/svg"><path d="m12.6590616.39813362c-.2273219-.22480234-.500589-.33715948-.8197123-.33715948h-10.67860957c-.31921233 0-.59247946.11235714-.81980137.33715948-.22732192.22480234-.34093836.49504064-.34093836.8107149v7.80547537c0 .31567426.11361644.58573645.34093836.81053879.22732191.22497842.50058904.33724752.81980137.33724752h10.67860957c.3191233 0 .5923904-.1122691.8197123-.33724752.227411-.22480234.3409384-.49495258.3409384-.81053879v-7.80547537c0-.31567426-.1135274-.58591256-.3409384-.8107149zm-.5877602 8.61601416c0 .06216626-.0229726.11596737-.0689178.16140333s-.1003494.06806589-.1631233.06806589h-10.67860962c-.06286301 0-.11726712-.02262993-.16321232-.06806589-.04594521-.04543596-.06891781-.09923707-.06891781-.16140333v-5.50963854c.15475342.17214593.32161644.33002709.50058904.47346736 1.29617123.9852383 2.32628767 1.79348769 3.09043836 2.42483621.24664383.20569458.44734246.36586515.60209589.48068781.15475342.11482266.36391095.23070197.6274726.34790209.26356164.11720012.51145205.1756681.74358219.1756681h.00730137.00721233c.23204109 0 .48010959-.05846798.74358219-.1756681.26365069-.11720012.47289726-.23307943.62765069-.34790209.15466438-.11482266.35545205-.27499323.60209589-.48068781.76415068-.63134852 1.7941781-1.43959791 3.0903493-2.42483621.1789726-.14344027.3459247-.30132143.5005-.47346736v5.50963854zm0-7.61880049v.07889655c0 .28212562-.1123699.59665517-.3371987.94332451-.2248287.34675739-.468.62298337-.7290685.8285899-.9335068.72706342-1.9030753 1.48503387-2.90915064 2.27417549-.0290274.02386269-.11370548.09448215-.2539452.21159422-.14015069.11720012-.25145206.20701539-.33372603.26909359-.08227397.06225431-.18974658.13754064-.32277397.22594705-.1330274.0884064-.25510274.15427093-.36631507.19724138-.11121233.04297044-.21521233.06445566-.31191096.06445566h-.00721233-.00730137c-.09669863 0-.20060959-.02148522-.31191096-.06445566-.11121233-.04297045-.23337671-.10883498-.36631507-.19724138-.13293835-.08840641-.24058904-.16369274-.32277397-.22594705-.08218493-.0620782-.1934863-.15189347-.33372603-.26909359-.14023972-.11711207-.22491781-.18773153-.2539452-.21159422-1.00589726-.78914162-1.9755548-1.54711207-2.90897261-2.27417549-.71099315-.55474138-1.0664452-1.23390332-1.0664452-2.03739778 0-.06216626.0229726-.11596737.06891781-.16140333.0459452-.04543596.10034931-.06815394.16321233-.06815394h10.67860957c.0386439.02148522.0724795.02747291.1015959.01796306.0290274-.00968596.0507534.00827709.0651781.05371305.0145137.04543596.0277808.06692118.0398904.06454372s.019411.02747291.0218151.08972722c.002226.06216625.0034726.09342549.0034726.09342549z" fill="#00586f" fill-rule="evenodd"/></svg>