<svg height="17" viewBox="0 0 18 17" width="18" xmlns="http://www.w3.org/2000/svg"><path d="m6.04872784 16.7736901h3.75138383v-6.3204875c0-.3383188.02453433-.67629825.12368687-.91756673.27106206-.67612859.88848116-1.37601077 1.92450676-1.37601077 1.3578483 0 1.9006493 1.03837064 1.9006493 2.5589389v6.0551261h3.7510454v-6.4891379c0-3.47684496-1.8505654-5.09429387-4.3188883-5.09429387-2.0238285 0-2.9123097 1.13491197-3.40570356 1.90741222h.02470353v-1.64171149h-3.75138383c.04923787 1.06178488 0 11.31773104 0 11.31773104m-3.95129633-12.86232434c1.30793365 0 2.12213504-.86988992 2.12213504-1.95542838-.02436513-1.11047971-.81420139-1.95593738-2.09743151-1.95593738-1.28339932 0-2.12213504.84545767-2.12213504 1.95593738 0 1.08553846.81403219 1.95542838 2.07289718 1.95542838zm1.87543811 1.54466116h-3.75121463v11.31773098h3.75121463z" fill="#00586f" fill-rule="evenodd"/></svg>