<?xml version="1.0" encoding="UTF-8"?>
<svg width="827px" height="653px" viewBox="0 0 827 653" version="1.1" xmlns="http://www.w3.org/2000/svg" xmlns:xlink="http://www.w3.org/1999/xlink">
    <!-- Generator: Sketch 62 (91390) - https://sketch.com -->
    <title>sammoniet-v2</title>
    <desc>Created with Sketch.</desc>
    <g id="sammoniet-v2" stroke="none" stroke-width="1" fill="none" fill-rule="evenodd">
        <g transform="translate(2.000000, 3.000000)">
            <g>
                <g id="Group-2" transform="translate(1.021493, 0.966580)" fill="#3D3D3D" fill-opacity="0.5" stroke="#000000" stroke-width="3">
                    <path d="M366.162033,369.135732 C365.848556,369.030717 365.563566,368.909815 365.303153,368.773894 C365.242605,368.494995 365.192026,368.208947 365.152146,367.915238 C364.587418,363.75609 366.500186,360.505484 368.501712,357.316792 C369.2572,356.113202 370.01251,354.920127 370.567208,353.665524 C372.772208,348.691454 375.694444,343.953126 378.605561,339.241871 C379.135372,338.384441 379.664671,337.527852 380.188872,336.670775 C385.531285,328.225976 391.955284,320.54444 399.30463,313.807655 C399.689308,313.442567 400.07323,313.077485 400.456773,312.712765 C406.206534,307.245169 411.878796,301.8668 418.689355,297.72154 C427.562539,292.188621 436.845758,287.342185 446.457858,283.224604 C449.428278,281.984979 452.520526,281.300858 455.601363,280.627401 C459.322471,279.813983 463.030917,279.026377 466.404976,277.100669 C470.39933,276.718459 473.689594,276.37866 476.949652,276.042512 C484.406326,275.273646 491.707584,274.535814 499.020162,275.568427 C502.007402,275.994195 504.956278,276.005421 507.903406,276.021141 C509.19282,276.028018 510.481986,276.035049 511.773264,276.074088 C514.559194,276.15725 517.165412,276.915284 519.746752,277.682825 C520.977701,278.048837 522.202709,278.414421 523.438437,278.687935 C526.641927,279.387289 529.588358,280.61087 532.523713,281.838394 C534.8173,282.79754 537.10395,283.758005 539.519235,284.427938 C543.769565,285.606247 547.719909,287.995209 551.611592,290.372293 C552.45691,290.888623 553.299688,291.403456 554.139885,291.901018 C554.907175,292.353042 555.677381,292.800484 556.44767,293.247984 C561.11682,295.960535 565.78233,298.683554 569.85386,302.380197 C580.312409,311.82532 589.163276,322.490897 595.505301,335.022992 C600.66443,345.158805 603.221675,355.909243 605.157852,367.455347 C607.098534,379.028313 605.094809,389.871756 603.06108,400.558957 C600.723271,412.615516 594.824434,423.719459 586.655009,433.42065 C579.569666,441.819225 571.511018,449.038318 561.94332,454.127519 C548.791098,461.128391 534.337529,464.73921 519.606107,462.12029 C506.585181,459.806824 494.409876,455.195177 484.276319,445.102484 C476.302856,437.254887 470.431403,427.527765 467.205019,416.825134 C464.988639,409.632352 464.587662,401.201325 466.936781,394.68644 C471.498661,381.983519 477.811651,370.017261 492.383099,364.568225 C497.997881,362.362876 503.963768,361.185886 509.995559,361.093595 C520.375723,361.009761 527.654547,366.37091 534.233426,373.83117 C536.362958,376.245431 537.365028,379.05895 538.32762,381.864947 C539.001299,383.828752 539.654211,385.785863 540.83078,387.522961 C541.245588,388.080334 541.487743,388.730227 541.550159,389.396946 C541.613997,390.07885 541.489816,390.778357 541.17005,391.414726 C540.520388,392.75749 539.923875,394.131388 539.328324,395.50202 C536.536847,401.926465 533.688899,408.18488 526.387341,411.424303 C524.406976,412.303819 521.022246,412.673797 517.659921,412.319046 C514.669936,412.00358 511.730935,411.115587 509.804394,409.660324 C507.712486,408.080146 506.001722,405.604046 505.02489,402.952939 C504.038867,400.276891 503.817027,397.447103 504.561123,395.192362 C505.022819,393.763003 505.838507,392.362708 506.89389,391.325175 C507.933478,390.30317 509.198809,389.63314 510.586212,389.509265 C511.887694,389.39403 512.941095,389.941596 513.777709,390.943615 C514.59047,391.917065 515.163341,393.393092 515.622645,394.683206 C516.818648,398.064388 518.293395,401.346191 521.726949,403.085617 C524.346911,404.414282 527.012633,404.327402 529.023975,403.114612 C531.026018,401.907428 532.318507,399.616855 532.318516,396.718378 C532.32121,395.916785 532.339059,395.114294 532.356962,394.313415 C532.463043,389.568012 532.696462,384.818841 528.933382,380.798457 C528.480547,380.314658 528.087361,379.769055 527.694449,379.215773 C527.160317,378.463629 526.646569,377.663094 525.776856,377.17288 C525.163178,376.829991 524.55508,376.483486 523.95028,376.138839 C517.771554,372.617876 511.952419,369.12758 503.615761,372.860533 C495.445169,376.549565 489.16156,381.560943 487.332394,389.730585 C485.939281,395.964003 485.727496,402.21533 487.265088,408.003709 C488.619988,413.10433 491.340539,417.838013 495.796694,421.872762 C496.071632,422.122334 496.348768,422.377339 496.628979,422.635189 C499.495824,425.273256 502.6843,428.380561 507.474409,428.254068 C509.354785,428.198763 511.062371,428.958974 512.804753,429.802228 C514.201147,430.478036 515.626689,431.231139 517.323217,431.154842 C531.277968,430.546854 542.880094,424.938446 550.606997,413.531605 C554.181975,408.259224 557.294374,401.924188 556.438943,394.710048 C556.085574,390.597627 556.067802,386.512133 556.380811,382.444501 C556.593334,376.749835 553.889997,372.325792 551.201776,367.780861 C550.653973,366.8547 550.103778,365.924278 549.571742,364.979873 C545.086564,357.021358 537.919131,352.381319 530.707821,347.745477 C526.770539,345.216352 521.842137,344.207727 517.439706,343.27572 C517.257928,343.237237 517.076988,343.198932 516.903785,343.162142 C509.459076,341.617557 501.455068,341.053564 493.97853,344.590023 C492.033478,345.507666 490.000318,346.15683 487.956021,346.804851 C485.391958,347.617633 482.806027,348.423578 480.392179,349.878501 C471.790957,355.056787 464.461578,361.333802 459.334353,370.01582 C458.078707,372.106144 456.917368,373.083094 455.659665,373.26942 C454.512184,373.439417 453.088999,373.004097 451.105626,371.23887 C445.812989,366.480352 439.387824,363.752068 432.741333,360.899522 C420.380195,355.592663 408.232599,357.002307 396.088731,358.35172 C395.202583,358.450188 394.316381,358.54866 393.430596,358.644637 C385.832072,359.470563 378.873085,363.475688 372.337727,367.602769 C372.186968,367.697692 372.039245,367.792723 371.893634,367.886369 C370.050451,369.071765 368.460018,369.905557 366.162033,369.135732 Z" id="Path"></path>
                    <path d="M107.935907,203.047656 C106.882035,203.191756 105.858179,203.260859 104.859261,203.271516 C105.392635,202.427086 105.930646,201.585472 106.473274,200.746713 C114.599786,188.185256 123.734686,176.305676 133.788643,165.224229 C143.667574,154.120194 154.182645,143.598869 165.289945,133.70526 C168.584463,130.818405 171.821319,127.85834 175.060151,124.89662 C182.580445,118.019757 190.112851,111.136058 198.39383,105.114839 C201.412304,102.948228 204.365281,100.681118 207.318369,98.4142492 C211.975562,94.839264 216.633526,91.2656289 221.549743,88.0701303 C229.395682,83.0471219 237.582814,78.4755237 245.866808,74.1224231 C249.638545,72.162308 253.374901,70.1420411 257.109599,68.1227472 C259.658215,66.7447497 262.206053,65.3671891 264.763528,64.0087856 C269.736287,61.1923894 275.544184,60.2217341 281.163289,61.2688029 C284.762452,62.0338044 288.379731,61.9695754 291.983419,61.9179838 C296.565461,61.8523858 301.124454,61.812255 305.546314,63.201823 C309.815182,64.5371333 314.182053,65.293833 318.55463,66.0558147 C322.652322,66.7698939 326.755117,67.4877938 330.793407,68.6519419 C335.88541,70.1175678 340.963651,71.8618024 345.923014,73.5658708 C346.907999,73.904318 347.888275,74.2411481 348.863012,74.5738228 C358.080967,77.79854 367.315258,81.7951875 375.600206,87.3151097 C377.441677,88.573276 379.304606,89.7798294 381.167106,90.9862861 C385.894519,94.048525 390.615926,97.1141064 394.769473,100.82625 C396.033741,101.959013 397.305831,103.082764 398.577682,104.206319 C407.185872,111.810808 415.765596,119.419693 421.932278,129.647576 C423.36865,132.024307 424.886339,134.37109 426.406451,136.72205 C429.320615,141.229007 432.241667,145.752059 434.638158,150.518633 C439.489684,160.150339 443.852429,170.134649 444.555465,181.097924 C444.723671,183.734669 445.475946,186.196117 446.21908,188.671041 C447.117094,191.661778 448.002342,194.670139 448.0682,197.963062 C448.110582,200.056707 447.92353,202.136533 447.7338,204.211695 C447.481211,206.974392 447.216546,209.729116 447.593828,212.494079 C447.709657,213.315918 447.675903,214.151102 447.633024,214.983372 C447.598867,215.646328 447.552985,216.307357 447.659767,216.957049 C448.922937,224.872915 447.137644,232.399172 445.316284,239.913603 C444.506862,243.253053 443.696226,246.589546 443.180823,249.963074 C442.86899,251.975814 442.130496,254.0682 441.368753,256.195273 C440.774865,257.853631 440.168393,259.535223 439.791783,261.223305 C438.508233,266.916767 434.03033,269.065277 429.68074,270.961142 C428.916076,271.294438 428.162247,271.622492 427.441441,271.973856 C422.530715,274.348184 417.8856,277.107955 413.239522,279.866204 C412.186911,280.49111 411.134291,281.116016 410.079587,281.735998 C403.371285,285.685898 397.544359,290.78159 391.714922,295.868138 C390.467734,296.956388 389.220639,298.044533 387.962582,299.124112 C387.239753,299.74136 386.690247,300.47773 386.130675,301.209629 C385.286252,302.314102 384.423825,303.409246 383.209349,304.277553 C380.847974,305.990707 378.661192,306.358023 376.978066,305.759327 C376.037229,305.424667 375.209505,304.789331 374.563523,303.813095 C374.037579,303.018264 373.62778,301.976937 373.400206,300.667636 C372.566192,295.817736 370.519402,291.488689 368.482237,287.139153 C367.660188,285.384003 366.83735,283.626191 366.085822,281.834954 C360.938292,269.595931 353.990809,258.500371 346.414882,247.781027 C342.462462,242.20675 337.577598,237.409128 332.697563,232.605272 C330.466531,230.409067 328.235452,228.212375 326.089216,225.944655 C317.010202,216.354512 305.920415,209.506112 294.889723,202.674985 C293.294126,201.686857 291.699525,200.699339 290.111058,199.703882 C287.5969,198.125783 284.598809,197.007332 281.614505,195.882319 C279.686294,195.155429 277.762006,194.428542 275.958698,193.595027 C270.00163,190.96065 263.894027,188.680741 257.66785,186.767233 C253.800598,185.517164 249.803413,184.814763 245.837892,184.113152 C242.292004,183.485785 238.770371,182.85978 235.391899,181.884405 C224.973802,178.872391 214.538409,179.232334 204.125914,179.568016 C197.977257,179.766239 191.835104,179.961249 185.705436,179.502222 C180.735902,182.004059 175.366148,182.689513 169.951352,183.349935 C165.855947,183.849436 161.736686,184.339808 157.783812,185.745747 C153.36075,187.328238 148.548294,188.504762 143.781069,189.66727 C142.47587,189.985549 141.174172,190.302957 139.892899,190.625946 C136.984657,191.375551 134.209475,192.618072 131.426616,193.856284 C129.308272,194.798826 127.186194,195.740943 125.004658,196.492454 C123.076166,197.153141 121.249425,198.063844 119.381483,198.990159 C115.943265,200.695175 112.374635,202.44073 107.935907,203.047656 Z M97.3740761,222.385877 L106.340516,200.990682 L109.218376,201.441372 C109.241515,201.709255 109.197608,202.003288 109.037186,202.299605 L97.3740761,222.385877 Z" id="Path"></path>
                    <path d="M520.696938,259.895437 C509.971015,255.577317 499.005708,256.033033 488.233243,256.601025 C486.399442,256.704782 484.549541,256.73843 482.694751,256.77179 C476.535291,256.882573 470.303931,256.946486 464.477609,259.900888 C463.587355,260.352916 462.746017,260.580697 462.009302,260.617501 C461.050548,260.665397 460.237145,260.405444 459.601636,259.909747 C459.004675,259.444117 458.537557,258.752138 458.322472,257.778911 C458.170014,257.089062 458.145755,256.229816 458.318658,255.19838 C458.458826,254.351875 458.570978,253.493007 458.683534,252.633298 C458.99348,250.265927 459.31762,247.896222 460.135076,245.723911 C461.760817,241.414978 462.006848,237.000974 462.275446,232.570496 C462.372395,230.971345 462.469838,229.36947 462.624668,227.777616 C463.108425,222.456282 463.155186,217.162796 463.203562,211.872205 C463.219856,210.090136 463.236169,208.308381 463.268758,206.525998 C463.556105,198.504469 462.921004,190.502847 461.376704,182.654019 C461.295339,182.275905 461.214103,181.897816 461.132877,181.519773 C458.895201,171.105149 456.678364,160.721779 451.90632,150.862719 C451.240193,149.475487 450.579777,148.085972 449.919595,146.696941 C445.455492,137.304409 441.009358,127.929733 434.83733,119.458321 C424.184514,104.877651 411.316336,92.6812542 396.863729,81.7773184 C387.109719,74.5278064 376.577332,68.3891762 365.454103,63.4718159 C356.896292,59.6293945 348.071184,56.4124254 339.049909,53.8466964 C336.804138,53.2109073 334.484869,52.8194009 332.163178,52.4245213 C327.564073,51.6422931 322.966711,50.8276343 318.829438,48.3871795 C317.014756,47.3224767 314.910795,47.3315705 312.826192,47.2766249 C312.016721,47.2552891 311.206656,47.2331876 310.407543,47.1685345 L303.410768,46.6024524 L310.027839,44.259443 C312.690776,43.3165352 315.341297,42.1894584 317.97968,41.0685862 C323.062781,38.9091172 328.104689,36.7833304 333.094241,35.9251274 C335.741863,35.4697364 338.264684,34.4648115 340.79025,33.4702733 C345.604517,31.5744715 350.418922,29.7628102 355.911579,30.936455 C356.792016,31.124353 357.793204,30.4730968 358.782053,29.9915314 C359.392743,29.6941277 360.002315,29.3999912 360.586867,29.1807943 C360.976025,29.0332909 361.355842,28.8321937 361.734793,28.635515 C362.7076,28.13062 363.679733,27.6805449 364.673995,27.6164004 C372.284329,27.1359311 379.841608,26.0241774 387.272638,24.2915061 C390.600276,23.5269945 394.034295,23.3538191 397.476139,23.1882831 C402.466269,22.9482822 407.484581,22.7483321 412.157687,20.4117791 C413.223909,20.0963833 414.033179,20.0206348 414.84123,20.0790641 C433.280642,18.8233674 451.759861,18.7537189 470.218434,19.2539514 C471.87677,19.2981082 473.547821,19.3088642 475.222171,19.3197439 C480.459538,19.3537756 485.727135,19.3974396 490.753466,20.4024163 C499.586436,21.9979938 507.8646,25.8265939 514.796731,31.5211496 C523.797074,38.8639659 532.326673,46.7655986 540.335015,55.1792529 C546.812634,62.3109242 552.543043,70.0416324 557.466367,78.2840834 C563.086412,87.3944873 567.813715,97.0262511 571.58409,107.049647 C574.011894,113.564833 575.954469,120.250671 577.396222,127.053882 C579.510954,137.08115 581.031309,146.946908 580.737954,157.204166 C580.599484,162.299846 579.524745,167.175911 578.441167,172.050499 C577.943784,174.28803 577.445971,176.525332 577.045141,178.787149 C574.897864,190.809876 570.498264,201.96409 564.895968,212.64188 C561.235452,219.598884 556.398164,225.862497 551.574562,232.091976 C547.59929,237.37996 543.150975,242.295176 538.284658,246.776796 C534.029362,250.598588 529.594478,254.222427 525.182692,257.826686 C524.679582,258.237708 524.176778,258.64848 523.674698,259.059355 C522.850888,259.756727 521.764273,260.062211 520.696938,259.895437 Z" id="Path"></path>
                    <path d="M677.792079,255.052207 C666.001256,269.23841 650.815924,280.21412 633.648675,286.958883 C627.185438,289.507042 620.507436,291.472551 613.695574,292.832016 C607.236058,294.328834 600.653282,295.232354 594.030156,295.531321 C590.29919,295.779958 586.650298,294.357231 584.070803,291.646499 C575.221532,282.562403 564.346139,276.372713 553.494417,270.174304 C553.196753,270.00428 552.899097,269.834262 552.601396,269.664221 C551.820243,269.412504 551.586705,269.295456 551.40334,269.161935 C550.820378,268.764292 549.999625,268.742296 549.228505,268.65421 C547.943152,268.507382 546.721813,268.288516 545.860954,267.680774 C545.044866,267.10464 544.428407,266.235794 544.331772,264.742323 C544.198522,262.725806 545.843934,261.054622 547.868982,259.488806 C548.451635,259.038285 549.034691,258.594089 549.500888,258.119765 C557.715174,249.796615 565.831913,241.501304 571.909772,231.275851 C574.981545,226.118395 577.723769,220.813834 580.466163,215.510886 C581.577984,213.360965 582.689727,211.211247 583.822145,209.072876 C589.000734,199.26808 591.332171,188.689145 593.304659,178.264546 C595.610816,167.024707 596.103981,155.511629 594.76996,144.140594 C594.744233,143.974433 594.682762,143.808219 594.629198,143.642041 C594.425041,143.008663 594.289003,142.384907 594.376536,141.801556 C595.696668,133.363848 593.499879,125.339742 591.375707,117.423366 C590.878726,115.571213 590.383387,113.724714 589.9326,111.884436 C588.677854,106.824289 586.960773,101.890149 584.805406,97.1494832 C584.213733,95.8612591 583.625578,94.5691251 583.036771,93.2755524 C580.660865,88.0558356 578.274934,82.8122257 575.604941,77.7192333 C570.499111,68.144601 564.397674,59.1351874 557.401876,50.8404963 C556.68363,49.9703893 555.981417,49.1078232 555.278027,48.2437937 C551.254839,43.3017929 547.198763,38.3041587 541.737089,33.9012093 L538.637344,31.4023379 L542.615371,31.2347492 C543.184622,31.2107675 543.740611,31.1779878 544.283053,31.1460716 C548.61108,30.8914186 552.065213,30.9006438 554.763103,34.1852382 C554.915717,34.3557585 555.125476,34.4635959 555.351909,34.489125 C559.2026,34.1685878 562.580733,35.5482011 565.973283,36.9957601 C568.333419,38.0028006 570.699368,39.0374948 573.302002,39.2902992 C576.703946,39.6172393 580.164037,41.3490074 583.299977,42.9592468 C583.870148,43.2520177 584.429152,43.5391149 584.972108,43.8081932 C589.556823,46.0698327 594.202249,48.1967341 598.848425,50.3242079 C606.32254,53.7465893 613.798196,57.1711505 621.030762,61.1487535 C624.223817,62.9029626 627.463629,64.6135009 630.707058,66.326027 C635.70128,68.9629696 640.703918,71.6047872 645.55987,74.4151694 C654.367311,79.6147019 662.780868,85.4301529 670.747796,91.8237855 C677.619775,97.2116448 684.201302,102.839878 690.662585,108.659046 C692.86318,110.641835 694.006569,113.276499 695.110045,115.941214 C695.542308,116.985058 695.972672,118.029401 696.489074,119.020893 C698.368511,122.631892 699.112541,126.587264 699.834993,130.548361 C700.61596,134.830292 701.358315,139.127226 703.874202,142.877809 C704.437815,144.026948 704.646121,145.081545 704.590358,146.1414 C705.271297,163.557316 705.697109,180.983152 704.585272,198.401891 C704.436915,200.656909 703.489835,202.664007 702.493006,204.684987 C701.785291,206.119816 701.053127,207.562552 700.753048,209.16861 C697.495627,226.622704 688.959148,241.550213 677.792079,255.052207 Z" id="Path"></path>
                    <path d="M689.237449,373.623148 C684.304144,374.055103 679.37243,374.470304 674.428668,373.612467 C673.635163,373.478429 672.828578,373.484529 672.025095,373.483699 C671.372543,373.483025 670.72138,373.480738 670.070406,373.42794 C668.594699,373.301451 667.134638,373.294947 665.681478,373.286917 C661.40105,373.263264 657.193456,373.186062 652.839928,370.637467 C650.352373,369.179245 647.326495,368.344251 644.281011,367.484748 C642.44527,366.966661 640.60054,366.444517 638.837873,365.800168 C636.879064,365.075217 635.065283,364.107179 633.245288,363.130487 C631.292122,362.08233 629.331796,361.021649 627.13614,360.310381 C624.467968,359.445833 622.593897,357.680409 621.277949,355.465807 C619.666197,352.753398 618.92084,349.345211 618.512232,346.295869 C618.005552,342.576095 616.550692,339.277992 615.119947,335.99035 C614.270931,334.039436 613.425903,332.092686 612.756214,330.079949 C611.453323,326.191219 609.129586,322.64733 606.63256,318.804434 C605.434394,316.960469 604.194605,315.051611 602.99571,313.014127 C602.281451,311.800267 601.61415,310.595889 600.974024,309.409737 C602.090069,309.986887 603.305333,310.461462 604.652311,310.798206 C610.13254,312.168264 614.762656,310.499231 619.356387,308.915831 C622.473352,307.841452 625.578711,306.786514 628.879042,306.489017 C632.455806,306.179149 636.689667,304.130747 640.523562,302.316727 C640.858844,302.158087 641.191147,302.000858 641.519911,301.846145 C642.613832,301.331456 643.71021,300.822773 644.806568,300.314106 C650.275966,297.776523 655.747068,295.243127 660.899008,291.940601 C670.752688,285.855364 679.68561,278.435651 687.459163,269.883493 C692.308476,264.377877 696.393831,258.316631 700.462625,252.248089 C704.0473,246.901603 706.717366,241.059158 709.38201,235.244041 C709.739707,234.463429 710.097211,233.683245 710.456628,232.904703 C714.314421,224.752459 717.064944,216.136362 718.641591,207.270711 C718.715794,206.823709 718.790135,206.376582 718.864496,205.929332 C721.655147,189.144765 724.508793,172.183126 721.058495,155.192349 C720.707525,153.560487 720.457225,151.915387 720.203865,150.243714 C719.746647,147.226987 719.283266,144.117986 718.115339,140.836366 C717.747083,139.801646 717.335373,138.824482 716.896166,137.889316 C717.959951,138.13047 719.040268,138.476689 720.135897,138.961896 C724.586871,140.933042 727.169467,144.258683 729.5128,147.349641 C729.880511,147.834669 730.242569,148.312378 730.608011,148.776394 C737.679844,157.47784 744.155101,166.647605 749.989455,176.222924 C751.511949,178.80982 753.048885,181.360474 754.586236,183.911867 C759.298889,191.733004 764.01362,199.561952 768.001231,207.88524 C769.260389,210.513046 770.70274,213.147661 772.142927,215.779885 C774.134507,219.419891 776.120762,223.055958 777.64227,226.664454 C781.301777,235.410891 784.427472,244.371216 787.001239,253.492902 C787.125734,253.930431 787.250625,254.366919 787.375275,254.802568 C789.376948,261.798383 791.28582,268.585122 790.679943,275.948884 C790.712782,277.571672 790.487697,279.189566 790.012936,280.742072 C788.726668,283.881977 787.716347,286.994928 786.707531,290.098491 C785.345487,294.288738 783.984277,298.461436 782.109507,302.355186 C774.893615,317.312498 766.263059,331.422992 754.135961,343.267124 C745.750973,351.447113 736.287334,358.442716 726.011268,364.057808 C725.813388,364.16662 725.614027,364.276573 725.41319,364.38734 C721.037421,366.8007 715.984169,369.52336 710.31517,369.613183 C708.467612,369.646028 706.198062,369.799925 704.678903,371.577842 C703.681574,372.667019 702.326465,373.270426 700.902125,373.283358 C696.911445,372.943631 693.074284,373.287198 689.237449,373.623148 Z" id="Path"></path>
                    <path d="M729.230732,473.427808 C727.034035,474.944413 724.457114,474.903802 721.776693,474.744902 C720.343508,474.659941 718.886493,474.551545 717.499097,474.881873 C716.060542,475.22768 714.631442,475.600696 713.203544,475.973302 C707.268003,477.522165 701.35173,479.043689 694.90585,478.731659 C691.503733,478.566674 688.435885,477.5683 685.378729,476.555379 C683.028804,475.776784 680.685894,474.990937 678.167385,474.671194 C660.889937,472.451699 647.588351,462.087234 635.226952,451.020061 C627.896641,444.445242 622.4811,435.797142 618.28405,426.606522 C617.830233,425.393337 617.091832,424.432754 616.123663,423.749195 C615.034391,423.000871 614.51118,422.070817 614.351522,421.072957 C614.192553,420.0794 614.425036,418.964819 615.015576,417.835456 C619.853082,408.462788 622.768056,398.643902 622.290013,387.980599 C622.222731,386.098459 622.243389,384.225566 622.265622,382.264202 C622.276918,381.267667 622.288507,380.247883 622.288507,379.19342 C622.288507,378.396137 622.281882,377.618679 622.274248,376.856128 C622.979316,377.182148 623.688525,377.504934 624.401847,377.824546 C657.793452,392.786041 690.378935,396.392002 724.638363,382.366 C758.469238,368.463578 779.971366,343.454126 795.541851,310.443511 C796.302129,308.831664 797.038691,307.221037 797.749401,305.617621 C797.872631,307.257492 798.026976,308.977049 798.372416,310.804865 C798.777664,312.949139 799.373394,314.85872 799.935965,316.670819 C800.834671,319.565645 801.638507,322.232103 801.638501,325.137849 C801.62896,328.368972 801.687513,331.605166 801.745954,334.841255 C801.871956,341.818474 801.995621,348.795095 801.453664,355.723867 C801.141731,359.595992 800.614198,363.44245 800.084354,367.299943 C799.343971,372.690247 798.597518,378.10244 798.458032,383.641183 C798.229786,392.704445 796.021197,401.56431 793.830806,410.301391 C793.691506,410.857035 793.552331,411.41218 793.414122,411.965615 C793.025449,413.527642 792.699538,415.118206 792.372007,416.714491 C791.326197,421.811456 790.237673,426.949917 787.296546,431.490328 C786.562936,432.620088 786.445192,433.924194 786.27624,435.238373 C785.970285,437.618219 785.578056,440.027906 783.439625,442.13372 C774.921772,450.721156 765.018664,457.813018 754.14563,463.111822 C752.679507,463.808086 751.254806,464.563738 749.829968,465.318913 C748.128388,466.220762 746.426533,467.121756 744.68303,467.917228 C742.490539,468.921225 740.178348,469.513352 737.866708,470.096884 C734.880129,470.850791 731.885108,471.574778 729.230732,473.427808 Z" id="Path"></path>
                    <path d="M769.660211,475.358785 C768.637791,477.144336 767.63978,478.935999 766.644506,480.722676 C764.24811,485.024595 761.866608,489.297379 759.206245,493.390791 C758.82795,493.972897 758.450093,494.561699 758.070628,495.152993 C755.808599,498.67775 753.482851,502.28154 750.702342,505.14074 C747.531769,508.391581 744.828845,511.989554 742.118653,515.59047 C739.429227,519.163793 736.733133,522.740229 733.605324,526.007262 C730.982158,528.764838 728.488325,531.695227 725.988725,534.631199 C722.71157,538.480469 719.424101,542.338595 715.837203,545.845911 C711.889447,549.706079 707.571384,553.114864 703.25396,556.519553 C700.644661,558.577228 698.036046,560.633847 695.513991,562.792908 C694.512626,563.555403 693.374275,563.936482 692.208507,563.93342 C688.977925,563.93342 685.764907,564.306053 682.551385,564.675439 C677.140617,565.297392 671.730512,565.898247 666.24258,564.909659 C662.752515,564.248353 659.217732,563.94543 655.68023,564.003125 C651.486797,564.121397 647.690167,562.75967 643.872474,561.352744 C641.012113,560.298621 638.139522,559.223111 635.034165,558.916459 C631.5357,558.578239 627.208244,556.134335 623.48742,553.791591 C622.208952,552.984 620.926319,552.184737 619.643552,551.385379 C616.032454,549.13512 612.42057,546.883712 608.895636,544.447361 C603.803368,540.76647 599.188132,536.517366 595.119489,531.770043 C590.440901,526.552455 587.505931,520.302276 584.561841,513.981109 C583.950462,512.668435 583.337928,511.353178 582.70699,510.044113 C577.981443,500.228943 578.177987,490.172522 578.426037,480.099669 C578.516574,476.423127 578.608365,472.74636 578.44022,469.085077 C578.309635,466.354668 579.85191,463.843205 582.555829,461.730768 C583.00832,461.377745 583.461669,461.025216 583.915198,460.672548 C591.178867,455.024257 598.527183,449.366304 602.959885,440.897171 C603.328748,440.193285 603.729709,439.697126 604.125079,439.362888 C604.740352,438.84275 605.383128,438.645305 606.022396,438.662723 C606.987473,438.68902 608.122509,439.297842 609.193901,440.842654 C609.929243,441.910442 610.65783,442.984989 611.386748,444.06005 C613.943895,447.831512 616.503631,451.610582 619.384903,455.117058 C622.676689,458.869836 626.185366,462.426687 629.892927,465.769355 C636.235751,471.967356 643.5341,477.009852 651.521541,480.723374 C656.13357,482.790713 660.953467,484.907627 665.705754,486.762932 C676.51914,490.911096 688.110073,492.639686 699.663268,491.827116 C700.62821,491.769108 701.577935,491.714218 702.527717,491.659327 C713.10438,491.048061 723.692526,490.454078 734.183095,486.824133 C737.363196,485.736501 740.484466,484.469629 743.609228,483.202185 C748.830252,481.084468 754.061638,478.968433 759.571901,477.636426 C760.63449,477.376352 761.540381,476.609365 762.495941,475.867202 C764.187795,474.553178 765.973559,473.272547 768.256472,473.116894 C769.14698,473.056178 769.985777,473.17532 770.787666,473.406951 C770.410161,474.055588 770.034008,474.705986 769.660211,475.358785 Z" id="Path"></path>
                    <path d="M663.943226,579.391124 L664.976786,582.191259 C662.719331,583.29379 660.493101,584.414559 658.278823,585.529271 C650.715069,589.337017 643.287701,593.070716 635.251931,595.793385 C631.526555,597.061679 627.749941,598.187692 623.973989,599.313122 C617.808594,601.150728 611.644311,602.985093 605.719645,605.456272 C603.261677,606.489221 600.782158,606.561837 598.315064,606.601022 C597.364428,606.61612 596.417272,606.629681 595.483386,606.716407 C592.640255,606.992303 589.96443,607.809126 587.273781,608.620588 C584.199957,609.54761 581.108248,610.468235 577.771486,610.719159 C565.186336,611.669762 555.514565,606.975134 546.111058,599.454398 C535.443532,590.914299 526.059883,581.314802 518.968348,569.725207 C513.161914,560.217298 509.726426,549.878244 507.692775,538.632149 C506.651616,532.914592 507.197101,528.036823 507.7941,522.868126 C507.889803,522.039548 507.986414,521.203275 508.077666,520.347919 C509.318469,509.170679 514.54926,500.00194 519.97129,490.58154 L520.264939,490.071322 C523.204512,484.907673 527.226119,483.400117 531.813288,481.78517 C532.851591,481.419628 533.918318,481.044632 535.003257,480.603998 C538.311846,479.257984 541.814532,478.959852 545.299824,478.68648 C549.682706,478.342705 554.062388,478.080351 557.818435,475.064547 C558.638183,474.40526 559.440044,474.016175 560.163453,473.855408 C561.131337,473.64031 561.99948,473.798059 562.731531,474.263165 C563.772127,474.924305 564.680275,476.372714 564.728216,479.043859 C564.774314,481.382539 564.721658,483.722159 564.668531,486.062717 C564.550786,491.250072 564.421287,496.443588 565.449993,501.640622 C566.929991,508.332345 569.073921,514.859745 571.849947,521.12584 C574.864259,528.079343 578.830079,534.566764 583.636951,540.410525 C591.254941,550.024007 600.63641,557.429674 610.976541,563.817096 C618.747557,568.61511 627.141502,572.810225 635.737052,574.625496 C638.568693,575.220682 641.369165,576.121948 644.181805,577.030124 C650.502344,579.070968 656.896189,581.212116 663.943226,579.391124 Z" id="Path"></path>
                    <path d="M509.644577,479.787182 C509.332739,480.243162 509.024131,480.701499 508.718783,481.16216 C502.988177,489.807613 498.458872,499.191642 495.255162,509.056729 C494.648065,510.856642 494.6688,512.603818 494.665719,514.35475 C494.664753,514.90402 494.663608,515.454069 494.647819,516.008854 C494.631201,516.557266 494.622732,517.104291 494.61423,517.649963 C494.563182,520.926514 494.470984,524.14537 492.940673,527.332765 C492.281029,528.706376 492.013184,530.97915 492.71433,532.263274 C494.502808,535.531111 494.544321,538.890123 494.529404,542.26215 C494.523247,543.654135 494.513686,545.04525 494.669308,546.427545 C495.38044,552.818843 497.932341,558.63728 500.471848,564.482918 C500.73029,565.07782 500.988829,565.672949 501.2461,566.269358 C503.755764,571.821933 506.722097,577.156575 510.11454,582.218313 C516.144981,591.736013 523.602567,600.221887 532.237392,607.39993 C532.988407,608.024241 533.747522,608.637988 534.512537,609.240244 C533.573135,609.563559 532.593437,609.811534 531.584646,610.021847 C528.425617,610.680443 525.38055,610.886483 522.30239,609.441858 C519.127939,607.955354 515.737034,607.490977 512.346127,607.005062 C510.97849,606.809081 509.609825,606.612481 508.257314,606.358701 C501.439712,605.105454 494.765943,603.167579 488.329672,600.571378 C488.012073,600.441214 487.699494,600.248189 487.394397,600.048162 C480.401707,599.573682 474.648512,596.753205 468.927026,593.900097 C466.674717,592.776948 464.426805,591.654419 462.12248,590.712525 C458.14031,589.089884 454.384495,586.889003 450.636433,584.686533 C449.294952,583.89824 447.95424,583.110291 446.600782,582.349468 C444.689384,581.269808 443.905574,579.465808 443.207345,577.567363 C442.950004,576.867667 442.700783,576.163024 442.322651,575.535802 C437.34944,567.25643 435.193543,557.978482 433.080342,548.777299 C432.889933,547.948231 432.699692,547.119885 432.508747,546.298526 C430.309497,536.995951 430.281448,527.311935 432.42776,517.992515 C436.093521,502.285034 441.862339,488.026708 455.975951,477.97332 C460.629226,474.645523 465.618578,472.501859 470.617994,470.365866 C472.786763,469.439263 474.956573,468.512757 477.097842,467.481889 C479.301365,466.498266 481.797668,466.633833 483.844334,467.827763 C488.191617,470.469943 492.845962,472.369088 497.527054,474.285871 C501.094257,475.746546 504.677476,477.21572 508.153184,478.998797 C508.654259,479.255854 509.151339,479.518532 509.644577,479.787182 Z" id="Path"></path>
                    <path d="M468.055449,454.296495 C467.465897,454.552088 466.876369,454.813305 466.286851,455.08004 C446.164638,464.184581 430.863137,477.541067 423.206705,498.390121 C415.707059,518.829366 415.622568,539.474754 421.751536,561.073947 C422.110281,562.338207 422.485425,563.588504 422.874928,564.824575 C421.73334,564.17507 420.5998,563.479985 419.476769,562.731703 C411.975855,557.733803 406.48461,551.389412 401.19047,545.248625 C399.891999,543.7425 398.605064,542.249615 397.301286,540.794328 C393.008004,536.002132 389.221205,530.767085 385.433071,525.525475 C383.428754,522.752118 381.423635,519.977268 379.3394,517.267763 C377.316514,514.63699 375.923676,511.666581 374.537859,508.682645 C373.213224,505.830445 371.896367,502.964311 369.914479,500.434331 C369.154816,499.457621 368.755879,497.967155 368.796334,496.358489 C368.834778,494.829774 369.256949,493.221356 369.972603,491.998018 C371.209716,489.87573 371.666436,487.523991 372.137801,485.227342 C372.53947,483.270272 372.945186,481.345394 373.698083,479.576541 C374.448871,477.810578 375.171603,476.024967 375.895447,474.236809 C379.516515,465.291456 383.195897,456.30848 390.315487,449.265175 C391.314066,448.280827 392.294369,447.264582 393.277538,446.245596 C396.518795,442.886257 399.798535,439.510064 403.793199,437.055417 C407.706029,434.833317 411.763673,432.990083 415.961213,431.52111 C422.883196,428.804634 430.312329,427.622315 437.726614,428.055455 C441.359863,428.244898 444.646545,429.535314 447.927379,430.851743 C449.598697,431.522357 451.268811,432.195258 452.989964,432.690956 C455.462447,433.396221 456.536223,435.932868 457.393077,438.835236 C457.698638,439.870244 457.993683,440.914216 458.456354,441.766984 C460.058179,444.71346 462.124472,447.147736 464.439992,449.893794 C465.212068,450.809427 466.011748,451.757908 466.832333,452.767106 C467.253494,453.285071 467.66012,453.794382 468.055449,454.296495 Z" id="Path"></path>
                    <path d="M361.542579,469.699357 C360.522802,471.757587 359.576252,473.816776 358.660999,475.86755 C358.788018,473.629153 358.827111,471.381645 358.700834,469.116928 C358.429071,464.243014 357.40499,459.533453 356.386774,454.822233 C355.111964,448.923773 353.849437,443.023014 353.938688,436.820125 C353.976969,434.355415 354.070372,431.881206 354.163981,429.404843 C354.386209,423.525939 354.613224,417.634473 354.074994,411.832762 C353.317055,403.70894 356.881448,398.207464 361.957388,393.313572 C371.205995,384.624968 382.160478,377.987148 394.125149,373.816768 C400.740403,371.428709 408.828071,371.633816 416.361076,372.096279 C428.880826,372.870377 438.61675,378.911066 447.070027,387.664038 C448.97637,389.647665 450.26943,391.752799 449.522551,394.379298 C448.478283,398.09462 448.577055,401.858772 448.654567,405.616078 C448.683562,407.021586 448.712193,408.426678 448.688335,409.826163 C448.654433,412.061857 448.316668,413.158896 447.534001,413.783935 C446.875401,414.309894 445.7542,414.652075 443.410991,414.219372 C435.766177,412.83375 427.874392,411.506831 420.427287,415.464766 C419.694877,415.923238 418.8707,416.215989 418.012558,416.322085 C408.106091,416.439818 400.626689,421.567779 393.130061,426.997036 C383.448597,434.029518 375.554117,443.237505 370.082506,453.879311 C368.985363,455.951049 367.853688,457.98667 366.714968,460.034746 C364.96283,463.186102 363.193568,466.36714 361.542579,469.699357 Z" id="Path"></path>
                </g>
                <g id="Group" transform="translate(0.740000, 0.430462)" fill="#FFFFFF" fill-rule="nonzero" stroke="#C7C7C7" stroke-width="5">
                    <path d="M762.88816,515.749109 C755.738068,525.580485 748.133052,535.542543 740.051947,544.546924 C730.281545,555.400549 719.424485,565.224234 707.649561,573.865016 C699.081706,580.161393 690.314342,586.138591 681.464871,592.011712 C674.144719,596.833068 666.405422,600.985701 658.332222,604.422955 C656.489387,605.215572 654.662466,606.16271 652.837845,607.111254 C649.357888,608.92034 645.897363,610.784758 642.28765,611.239093 C639.230908,611.609062 636.488978,612.782044 633.78519,613.976391 C631.109314,615.158408 628.480167,616.408352 625.42298,616.300916 C623.436666,616.234949 621.771429,617.123953 620.181926,618.134826 C619.571694,618.522914 619.004039,619.012008 618.319081,619.067625 C614.150844,619.403703 610.151269,620.613265 606.160497,621.840881 C601.17554,623.374322 596.202205,624.977839 590.816402,624.327171 C586.866911,623.85559 583.04411,624.308487 579.623282,626.781437 C579.037183,627.105512 578.377052,627.273912 577.706105,627.26959 C574.377277,627.436499 571.181489,627.660151 567.982176,627.884195 C555.583616,628.752452 543.125697,629.662584 531.096168,626.874491 C527.330909,625.999038 523.515201,625.555626 519.6909,625.116662 C514.198853,624.486269 508.682609,623.879811 503.306408,621.773555 C499.272774,620.184355 494.84476,619.110624 490.40691,618.043415 C487.817343,617.420679 485.225003,616.798362 482.713821,616.060613 C477.010224,614.351525 471.397656,612.352182 465.897436,610.070082 C457.666804,606.593719 449.693999,602.536019 442.039438,597.927728 C430.979472,591.519382 420.435076,584.338599 410.46261,576.428064 C394.291834,563.479582 381.465528,547.504972 369.765407,530.656407 C363.086082,521.009553 358.263899,510.240128 353.428775,499.476449 C353.259294,499.09916 353.089815,498.721875 352.920246,498.344546 C352.662116,497.763238 352.401045,497.180853 352.139579,496.597597 C350.229936,492.337731 348.276539,488.035272 347.40966,483.760373 C346.793205,480.735109 345.779911,477.79463 344.759131,474.855406 C343.010278,469.819775 341.168818,464.784504 341.946489,459.181595 C342.54861,454.822238 341.39226,450.750642 340.145453,446.641317 C339.287946,443.815077 338.391326,440.970919 338.349794,437.947448 C338.344143,437.507229 338.338428,437.067106 338.332714,436.627065 C338.237762,429.314487 338.142405,422.024975 338.349016,414.701035 C338.460125,411.479537 339.372805,408.396491 340.258371,405.316669 C341.682593,400.363507 343.010042,395.427524 341.999037,390.119852 C342.012032,389.59012 342.139624,389.068698 342.373895,388.591778 C343.807192,384.299157 344.944321,380.274153 346.080624,376.249404 C348.269047,368.498079 350.446735,360.744426 353.873558,353.420813 C355.508874,349.932901 357.40189,346.565595 359.294003,343.195324 C360.696646,340.696909 362.099346,338.197161 363.407089,335.645353 C363.549822,335.365485 363.69391,335.088381 363.83726,334.812642 C365.468719,331.674483 366.895395,328.673273 366.27333,324.445342 C364.795827,314.411313 361.037594,305.279824 357.23444,296.104433 C356.279955,293.801668 355.324035,291.495737 354.405012,289.170671 C349.709084,277.288548 342.662947,267.062568 335.404227,256.896294 C326.016344,243.755291 314.057663,233.254957 300.980546,223.787783 C290.565504,216.212285 279.030803,210.643499 267.405066,205.520468 C264.465171,204.229644 261.150963,203.304009 257.850998,202.392094 C255.310243,201.689979 252.779273,200.995001 250.467448,200.106174 C243.239693,197.326268 235.765319,196.549249 228.307832,195.802783 C222.300666,195.201488 216.30679,194.617923 210.494015,192.829722 C205.824009,191.395363 200.597738,192.289423 195.814296,193.842926 C189.621727,195.864125 183.108606,196.721966 176.605048,196.373093 C172.746243,196.132988 168.908948,197.107889 165.632364,199.161124 C164.894495,199.618606 163.982852,200.44965 163.168342,200.348626 C157.819432,199.683833 153.086462,201.592123 148.430114,203.587168 C146.683729,204.335419 144.950125,205.083141 143.186308,205.632715 C134.922793,208.291132 126.922698,211.641512 119.251175,215.654284 C113.164258,218.792349 107.23357,222.176379 101.308198,225.558243 C97.7760575,227.574188 94.2457433,229.589205 90.6861275,231.54849 C81.1117153,236.809156 76.281015,245.648267 71.7758176,255.038491 C69.5252637,259.731313 67.0286824,264.332615 64.5409213,268.91983 C64.0631515,269.800796 63.5856711,270.681231 63.110783,271.560654 C60.1233465,277.086865 57.7398514,282.862105 55.3633623,288.63229 C53.3877292,293.429185 51.4163954,298.222108 49.0792056,302.851019 C46.1820206,308.578012 44.4859905,314.675927 42.8035567,320.786126 C41.7157105,324.736924 40.6304782,328.691409 39.1787856,332.542774 C37.4925996,337.045379 36.2843356,341.846626 35.0819598,346.647091 C34.3033423,349.755708 33.5260123,352.863518 32.607439,355.88452 C31.7484473,358.719192 31.3204711,361.657042 30.9026802,364.592723 C30.2830361,368.946762 29.7326157,373.319708 27.2738481,377.20841 C26.2871899,378.776944 26.1475305,380.611925 26.1419169,382.500098 C26.139973,383.153931 26.1532037,383.809716 26.0334092,384.435683 C24.191572,394.190106 22.196802,403.917932 20.0490839,413.618834 C19.7820669,414.776534 19.439895,415.919814 19.0995875,417.062679 C18.0775539,420.495005 17.1298957,423.92195 17.6005657,427.599546 C18.782431,436.756676 17.7742824,445.939678 16.8080608,454.946329 C16.75658,455.426208 16.7051515,455.9056 16.65402,456.385145 C16.5175014,457.668775 16.3711661,458.951455 16.2249116,460.23364 C15.5314825,466.3128 14.8504786,472.381135 15.1532027,478.486042 C15.7248493,489.768541 16.7271317,501.031029 17.7398285,512.291001 C18.2411493,517.927946 17.9940144,523.554507 17.7537955,529.186821 C17.5848895,533.147091 17.4174092,537.110271 17.4897992,541.082338 C17.4610187,544.657913 17.9836335,548.216687 19.0393433,551.633246 L19.4081577,552.740361 C21.2003143,558.159074 22.8292113,563.633464 21.9473088,569.55103 C21.6205156,571.969953 22.5262724,574.725517 23.462857,577.102996 C24.5875682,579.968332 24.861623,583.012226 25.1604833,585.994648 C25.4108246,588.492883 25.6685932,590.956322 26.2817619,593.283671 C29.7678356,606.577658 34.3369076,619.917442 49.1895116,625.549354 C50.0131418,625.859292 50.7311164,626.384389 51.4617662,626.887743 C53.6082665,628.366495 55.7920874,629.658256 58.8305011,629.287846 C61.7020252,629.077207 64.584212,629.053056 67.4589082,629.215553 C73.7167145,628.87699 79.656656,628.074524 85.508118,626.815556 C88.7546565,626.178256 91.961497,625.261744 95.1707029,624.341323 C101.19121,622.614604 107.220585,620.835891 113.601537,621.225126 C115.974185,621.366275 117.885325,620.417516 119.737596,619.361597 C120.637504,618.848589 121.499556,618.229538 122.57,618.229538 C129.143941,618.133032 135.380009,616.42338 141.592636,614.69199 C144.568744,613.862581 147.539443,613.032767 150.540422,612.406877 C156.780982,611.105333 163.133759,609.528867 169.493425,607.950057 C172.441917,607.218084 175.391922,606.485706 178.334511,605.780247 C180.478332,605.264724 182.652077,604.791225 184.827886,604.317078 C189.640003,603.268433 194.460911,602.213285 199.012958,600.72377 C203.89837,599.112693 208.945135,598.038772 213.932368,596.972627 C216.527267,596.417904 219.106748,595.866126 221.644036,595.247937 C224.150845,594.63472 226.656098,593.80736 229.18065,592.970687 C235.194307,590.977675 241.33521,588.82973 247.991751,590.181397 C248.518565,590.286304 249.057293,590.351972 249.587397,590.413924 C250.182307,590.483449 250.816751,590.42741 251.255069,590.746752 C251.380285,590.837979 251.369725,591.037511 251.401506,591.235185 C251.459392,591.596343 251.469814,591.892129 251.305134,592.114699 C250.827547,592.760174 249.946352,593.094229 249.073934,593.545295 C243.467983,596.458093 237.545512,597.532627 231.638115,598.638842 C227.787189,599.359964 223.938521,600.08595 220.202493,601.227733 C217.955597,601.911164 215.712195,602.608224 213.469485,603.305085 C203.821449,606.302951 194.187523,609.302221 184.326284,611.16483 C180.38175,611.926056 176.623031,613.162868 172.873827,614.403685 C170.083846,615.327042 167.299182,616.251432 164.438644,616.950485 C160.786586,617.839584 157.099692,618.989275 153.422219,620.137869 C150.546286,621.036116 147.676176,621.933303 144.833284,622.694635 C141.206119,623.696244 137.594904,624.804491 133.985323,625.912591 C130.709099,626.918355 127.434228,627.923957 124.163637,628.842741 C122.734984,629.236784 121.280423,629.593291 119.818722,629.951907 C115.089979,631.112065 110.30166,632.315969 105.989507,634.676637 C105.15242,635.254034 104.485824,635.535069 103.782626,635.66075 C100.120073,635.703517 96.777726,636.871017 93.4376242,638.087911 C91.4632304,638.80724 89.4900007,639.537491 87.4193109,639.934247 C85.4245461,640.316652 83.4391077,640.754605 81.4551479,641.192563 C74.8267889,642.65577 68.2146192,644.164074 61.283339,643.289252 C54.9103442,642.48414 48.9013265,640.361796 42.9614964,638.110101 C32.4165228,634.13677 25.8078422,625.712074 20.6623176,616.347979 C17.900021,611.308 16.1519082,605.680617 14.513137,599.930384 C13.3259423,595.790536 12.8257749,591.553908 12.3164161,587.328328 C11.6552314,581.843218 10.9736512,576.378054 9.02403548,571.120344 C7.78616094,567.834722 7.77981055,564.334686 7.72375936,560.843181 C7.67228728,557.636915 7.60042664,554.431107 6.85995108,551.341884 C4.32369052,540.854446 4.34940706,530.242332 4.35204855,519.64855 C4.3535393,513.669829 4.35284117,507.695753 3.92350893,501.749501 C2.93320317,489.043354 2.24236788,476.291811 3.34040563,463.758353 C3.80378873,458.484425 3.70054153,453.169643 3.5926447,447.866346 C3.42869527,439.807978 3.23344633,431.772719 5.27091525,423.963372 C6.65614638,418.587704 7.40858168,413.134089 8.15680411,407.670203 C8.94554504,401.910432 9.7281473,396.138426 11.3263393,390.447425 C12.37699,386.717864 13.0870641,382.741526 13.7950763,378.752108 C14.5075976,374.737283 15.2173966,370.70846 16.3217082,366.923655 C17.2883131,363.579111 18.0514435,360.18217 18.8141281,356.780166 C19.7263867,352.710979 20.6368062,348.633915 21.9287485,344.638768 C22.1536112,343.955258 22.3813807,343.269086 22.6100499,342.580193 C24.454846,337.022533 26.3465656,331.290127 27.3077829,325.359598 C27.9505321,321.394774 29.3896104,317.553852 30.8078871,313.722748 C31.3033646,312.384345 31.7980914,311.047437 32.2622006,309.708078 C33.9790504,304.298308 35.9498365,299.042275 38.1876825,293.899141 C39.546451,290.986949 40.8104688,288.034348 42.0745896,285.080396 C44.1407894,280.252176 46.2053895,275.419274 48.7115143,270.764162 C52.0894903,264.486508 55.1821345,257.982276 58.252113,251.523789 C61.0524867,245.823718 64.0885087,240.464826 67.4294885,235.296796 C70.4234379,230.541671 73.2603972,225.720467 76.0969537,220.899203 C77.8500226,217.919531 79.6030117,214.939883 81.3898144,211.982285 C86.9511854,202.506265 92.9973786,193.360819 99.5190514,184.557916 C101.387705,182.116749 103.223464,179.656046 105.057451,177.197613 C109.310716,171.496168 113.553106,165.806043 118.187563,160.407274 C127.972277,149.151586 138.31386,138.392355 149.173551,128.169907 C168.038867,109.985606 188.242987,93.2880145 209.633323,78.2009703 C223.613282,68.5260898 238.354579,60.0004604 253.719641,52.7043941 C266.429298,46.6189222 279.168628,40.542852 292.08787,34.9860816 C295.704897,33.4301988 299.640483,31.9531539 303.45221,30.5215808 C304.358631,30.1811556 305.25815,29.8433196 306.143956,29.5080464 C311.110328,27.6307579 316.215727,25.8129777 321.187943,24.1754178 C323.136211,23.5374894 325.065469,22.793925 326.998604,22.0476412 C331.569487,20.2830586 336.159149,18.4614469 341.142785,18.2984783 C343.597371,18.2269855 345.732769,17.3618222 347.880723,16.4296434 C349.37357,15.7817708 350.872516,15.0868135 352.619272,14.9408537 C363.212741,14.1403782 373.756766,11.9136531 383.952858,9.62988735 C388.519863,8.61395233 393.112952,8.30934662 397.678988,7.99733464 C402.844536,7.64435606 407.976835,7.28077978 413.015286,6.0251573 C427.336862,2.45136927 441.811042,2.8923409 456.279563,3.30271963 C463.544372,3.50877548 470.808917,3.71298403 478.054547,3.43774957 C481.573346,3.30457812 485.020157,4.1885305 488.493237,5.044631 C491.729226,5.84228952 494.985895,6.6296733 498.308717,6.80554264 C499.068539,6.84855143 499.832326,6.93499257 500.599256,7.02051813 C502.044623,7.18170084 503.499506,7.33531895 504.958616,7.28832143 C508.401781,7.19439615 511.825319,7.83718082 514.999982,9.17367895 C517.569803,10.1996115 520.401925,10.4096249 523.260048,10.5748147 C525.199113,10.686886 527.149341,10.7802193 528.967035,11.2801133 C532.302523,12.2253658 535.712769,12.8447988 539.124783,13.4604973 C544.001825,14.3405608 548.887229,15.2013957 553.516311,17.1678759 C554.906163,17.7627322 556.572951,17.9011365 558.228502,17.9783134 C559.291957,18.0278885 560.41965,17.9018881 561.169647,18.4541234 C564.34056,20.7841669 567.940377,21.7900904 571.577009,22.7479895 C573.750426,23.3204736 575.932956,23.8805448 577.982614,24.8554724 C578.584874,25.1430988 579.193945,25.441468 579.810468,25.7434407 C584.018449,27.8045067 588.55869,29.9684565 593.559622,30.4189006 C595.655345,30.6128492 597.417393,31.8073835 599.218328,32.9190219 C600.545686,33.7383426 601.883687,34.5536644 603.292962,35.1621163 C610.695087,38.3812865 617.897539,42.0560799 625.101449,45.7298503 C628.851739,47.6423816 632.602292,49.5549232 636.379369,51.4042231 C661.493041,63.7181517 683.316542,80.6138866 703.790081,99.4118665 C718.795643,113.176068 733.430072,127.32215 745.909476,143.435161 C755.706326,156.153182 764.148617,169.727808 772.285033,183.536864 C777.188601,191.874915 781.964752,200.341174 786.093401,208.985532 C786.915815,210.710316 787.775849,212.42586 788.638766,214.146783 C791.477211,219.807525 794.365925,225.523109 795.9216,231.873569 C796.580404,234.566759 797.586709,237.248577 798.60289,239.938372 C799.517754,242.359985 800.44098,244.788575 801.067935,247.248895 C801.689623,249.680077 802.469989,252.066965 803.251485,254.451404 C804.654912,258.733428 806.081193,263.004903 806.413814,267.559155 C806.345611,268.618664 806.438044,269.043096 806.565645,269.400379 C808.913803,274.041017 809.458807,278.773546 810.051172,283.488853 C810.622607,288.037553 811.221743,292.577985 812.963373,296.849346 C814.715876,301.169266 814.515637,305.711668 814.386146,310.217752 C814.377581,310.515797 814.36902,310.813766 814.360923,311.111602 C814.227308,317.662786 815.011668,324.183338 816.690358,330.500715 C818.417037,337.795169 818.161999,345.418997 815.951184,352.582273 C814.870907,356.151457 814.299665,359.841174 814.250221,363.556269 C814.224484,366.449023 814.340348,369.337829 814.457142,372.22445 C814.698832,378.197896 814.963063,384.164235 813.816547,390.029362 C812.439748,397.0641 811.123773,404.008479 810.049679,411.065461 C809.000982,417.810509 807.11982,424.399464 804.450223,430.679218 C803.090544,433.868951 802.093179,437.224951 801.104673,440.570873 C800.725245,441.855169 800.346501,443.137654 799.943182,444.415831 C795.495864,458.688848 789.21983,472.146915 782.475563,485.318538 C776.984166,496.024288 770.011894,505.953974 762.88816,515.749109 Z M659.009972,586.958591 C661.220681,585.845675 663.443313,584.726691 665.697131,583.625936 L663.974531,578.959044 C657.12074,580.730101 650.908542,578.596515 644.770568,576.61462 C641.924224,575.695561 639.08975,574.785303 636.224241,574.182998 C627.738324,572.39088 619.455083,568.239021 611.783389,563.502331 C601.54317,557.176629 592.24739,549.847182 584.690739,540.31138 C579.943109,534.53964 576.026166,528.132172 573.045733,521.256905 C570.298496,515.055795 568.17638,508.596264 566.710848,501.974158 C565.698208,496.852234 565.833735,491.733362 565.949766,486.621528 C566.003214,484.266829 566.05589,481.913076 566.009514,479.56027 C565.952187,476.366072 564.77006,474.730847 563.549288,473.955233 C562.603354,473.354237 561.482491,473.13655 560.228003,473.415342 C559.380701,473.603642 558.435204,474.047729 557.473213,474.821416 C553.883563,477.703616 549.680821,477.897979 545.503121,478.22566 C541.914817,478.507111 538.31284,478.82863 534.907916,480.213835 C533.838606,480.648122 532.786576,481.017574 531.762702,481.378037 C526.944281,483.074397 522.760873,484.699964 519.680377,490.107456 L519.386063,490.618862 C513.893833,500.161231 508.621715,509.455507 507.364102,520.784376 C507.273859,521.630399 507.17757,522.463786 507.082197,523.289504 C506.473989,528.555248 505.929964,533.523749 506.990447,539.34742 C509.046531,550.717579 512.525677,561.169335 518.396401,570.782517 C525.548959,582.471842 535.008375,592.157669 545.767584,600.771167 C555.380096,608.459062 565.273047,613.223441 578.128298,612.252437 C581.539058,611.995948 584.701226,611.061934 587.844014,610.114113 C590.468684,609.32255 593.077853,608.519314 595.851295,608.248839 C596.766092,608.163868 597.687606,608.151703 598.612438,608.137014 C601.206024,608.09582 603.807152,607.999117 606.388562,606.914291 C612.278337,604.457669 618.409504,602.635116 624.541116,600.807578 C628.329365,599.678484 632.118201,598.54857 635.855705,597.276147 C643.934534,594.53889 651.404265,590.787457 659.009972,586.958591 Z M783.291667,303.325815 C785.185983,299.391467 786.563995,295.177069 787.940043,290.943739 C788.940971,287.864446 789.942462,284.775483 791.250713,281.570626 C791.751326,279.933584 791.991332,278.228292 791.962208,276.517253 C792.565399,269.050274 790.649317,262.162367 788.618187,255.063601 C788.493671,254.628419 788.368915,254.192401 788.244553,253.755342 C785.660408,244.596865 782.521384,235.59833 778.846271,226.814595 C777.31104,223.173543 775.309885,219.50638 773.301694,215.836014 C771.8702,213.219677 770.436101,210.601191 769.18454,207.989238 C765.183105,199.637096 760.453301,191.780225 755.724255,183.931883 C754.188694,181.38346 752.653531,178.835785 751.124912,176.238711 C745.269603,166.629 738.771363,157.426125 731.674641,148.693024 C731.313066,148.234063 730.954937,147.761443 730.591174,147.281624 C728.153091,144.065687 725.447739,140.632066 720.822315,138.583665 C718.970904,137.763754 717.161899,137.320789 715.400182,137.107201 C716.155302,138.534274 716.862892,140.044876 717.454719,141.707781 C718.599524,144.924433 719.048531,147.972997 719.496648,150.929682 C719.752538,152.618043 720.005956,154.279507 720.359974,155.927707 C723.785849,172.797903 720.929965,189.638463 718.15953,206.301438 C718.085785,206.744984 718.01206,207.18841 717.938468,207.631712 C716.377435,216.409956 713.654034,224.941089 709.830201,233.021676 C709.470389,233.801074 709.112491,234.582115 708.754401,235.363584 C706.112127,241.129883 703.468242,246.925522 699.913529,252.22732 C695.871914,258.255326 691.81602,264.27783 687.000047,269.747509 C679.289967,278.230004 670.429265,285.58973 660.640835,291.63484 C655.527337,294.912723 650.095654,297.424513 644.667192,299.943103 C643.569211,300.452522 642.471213,300.961963 641.375672,301.477414 C641.046217,301.632452 640.713281,301.789979 640.37736,301.948921 C636.655035,303.710152 632.549853,305.727761 629.074224,306.028867 C625.689741,306.333944 622.506014,307.405601 619.312007,308.506535 C614.89973,310.027391 610.450632,311.682755 605.176339,310.364182 L599.391158,308.917887 L602.415338,314.057383 C603.622009,316.108082 604.869584,318.02948 606.075524,319.885409 C608.523102,323.652206 610.812109,327.1211 612.08951,330.933753 C612.767932,332.972742 613.623585,334.947237 614.484506,336.925508 C615.878824,340.129447 617.308934,343.34071 617.802875,346.966954 C618.228441,350.142867 619.021196,353.687908 620.699763,356.512759 C622.138689,358.934321 624.195042,360.853492 627.109388,361.797806 C629.246827,362.490216 631.152882,363.52756 633.053921,364.547744 C634.914504,365.546216 636.769917,366.533049 638.772276,367.274118 C640.561963,367.928353 642.430828,368.458322 644.290891,368.983273 C647.250762,369.818614 650.197188,370.618534 652.615701,372.036283 C657.139186,374.684373 661.504546,374.798414 665.957445,374.82302 C667.384128,374.830904 668.81765,374.836218 670.27796,374.961361 C670.94844,375.015724 671.626246,375.019114 672.305554,375.019816 C673.049676,375.020585 673.797223,375.009917 674.532507,375.132753 C679.568918,376.006615 684.586271,375.594991 689.606166,375.155454 C693.384988,374.824585 697.164278,374.481025 701.192697,374.819435 C702.894145,374.803987 704.512894,374.083186 705.720659,372.763575 C707.039258,371.22038 709.035174,371.177219 710.614437,371.149143 C716.450439,371.056676 721.666679,368.287025 726.177629,365.799109 C726.378095,365.688546 726.577086,365.578796 726.774602,365.470185 C737.128294,359.81268 746.665546,352.762661 755.115756,344.519045 C767.327586,332.592158 776.02518,318.388001 783.291667,303.325815 Z M496.487758,509.90172 C499.663488,500.122791 504.153236,490.820719 509.833793,482.250772 C510.339648,481.487616 510.854529,480.730896 511.378302,479.980762 C510.558832,479.52201 509.730528,479.075789 508.891127,478.645167 C505.389919,476.849007 501.780889,475.367971 498.187483,473.896567 C493.555282,471.999803 488.947553,470.124203 484.62971,467.50011 C482.304965,466.143961 479.46949,465.989975 476.945558,467.116987 C474.817843,468.14133 472.661631,469.061663 470.506595,469.982399 C465.441271,472.146552 460.389917,474.324685 455.675739,477.696037 C441.353052,487.898352 435.458356,502.348895 431.73542,518.301364 C429.553998,527.773216 429.582498,537.612749 431.817065,547.064715 C432.006959,547.881583 432.196999,548.709059 432.387208,549.537256 C434.524059,558.841413 436.718929,568.216295 441.746906,576.586841 C442.093642,577.161988 442.315122,577.809222 442.550302,578.448665 C443.333716,580.578724 444.260408,582.553118 446.390457,583.756284 C447.740162,584.515 449.07533,585.299762 450.411294,586.084813 C454.201113,588.311821 458.00024,590.534057 462.02662,592.174713 C464.307077,593.106851 466.532301,594.219115 468.762261,595.33112 C474.525248,598.204923 480.324807,601.018612 487.127602,601.420569 C487.487244,601.656357 487.857838,601.87948 488.244798,602.038028 C494.735731,604.656254 501.474257,606.612932 508.35801,607.87834 C509.721037,608.1341 511.103896,608.333047 512.485769,608.531069 C515.778382,609.002898 519.076009,609.439549 522.159804,610.883602 C525.443405,612.424643 528.69185,612.241244 532.070231,611.536917 C533.732616,611.190342 535.315759,610.740715 536.780393,610.048732 C535.554277,609.115262 534.345983,608.154495 533.158141,607.167054 C524.603595,600.055747 517.215344,591.648767 511.22672,582.197693 C507.86838,577.186838 504.931454,571.906087 502.446134,566.409752 C502.188412,565.812694 501.929423,565.216524 501.67053,564.620584 C499.171273,558.867596 496.644699,553.144614 495.944667,546.85308 C495.793242,545.508047 495.804902,544.155705 495.810887,542.802691 C495.826552,539.261418 495.748154,535.745432 493.873038,532.319294 C493.297794,531.265755 493.59087,529.411131 494.123609,528.30178 C495.719965,524.976825 495.842292,521.623343 495.895602,518.201659 C495.904027,517.660879 495.912383,517.118757 495.928853,516.575261 C495.94495,516.009711 495.946228,515.450775 495.94721,514.892627 C495.950102,513.248942 495.913313,511.605045 496.487758,509.90172 Z M803.027284,335.359317 C802.968969,332.130235 802.910469,328.901047 802.919989,325.67692 C802.92,322.668042 802.102685,319.906692 801.172492,316.910444 C800.620513,315.132461 800.034148,313.259261 799.636515,311.155279 L798.205741,303.584682 L794.918906,310.553023 C779.461431,343.324049 758.131218,368.173135 724.539759,381.977171 C690.54738,395.893841 658.21824,392.290573 625.092233,377.448082 L621.57,375.869905 L621.57,379.729538 C621.57,380.780109 621.558433,381.796129 621.547179,382.788986 C621.524763,384.766528 621.504311,386.654862 621.572508,388.561502 C622.042381,399.042528 619.16675,408.690238 614.414543,417.90112 C613.705574,419.257727 613.456846,420.587517 613.645574,421.767065 C613.843625,423.004881 614.476455,424.170512 615.829708,425.103221 C616.632295,425.670218 617.244365,426.466748 617.655905,427.558042 C621.910987,436.875741 627.410223,445.635908 634.840741,452.300606 C647.356407,463.505894 660.83905,473.953336 678.321463,476.199162 C680.776313,476.510824 683.056989,477.282434 685.345708,478.04075 C688.488072,479.081903 691.643004,480.09707 695.138905,480.266603 C701.689602,480.583707 707.704174,479.051406 713.737529,477.477019 C715.159194,477.10604 716.58204,476.734591 718.014316,476.390294 C719.305454,476.082886 720.664454,476.200154 721.999008,476.279268 C724.919279,476.452386 727.699943,476.430307 730.091059,474.779433 C732.636833,473.002195 735.524217,472.326748 738.392955,471.602587 C740.763534,471.004177 743.132772,470.392013 745.380871,469.362551 C747.141059,468.559468 748.860674,467.649728 750.579759,466.738601 C751.991609,465.990311 753.403176,465.241252 754.865205,464.546876 C765.835807,459.200523 775.828078,452.045575 784.42322,443.382002 C786.744469,441.095826 787.216094,438.495918 787.54957,435.902002 C787.698735,434.741732 787.765722,433.573605 788.416731,432.571052 C791.427521,427.923098 792.562178,422.670918 793.633092,417.451605 C793.957827,415.868947 794.280668,414.291893 794.666025,412.743197 C794.803954,412.190881 794.943055,411.636032 795.082281,411.080684 C797.290566,402.272227 799.509112,393.339184 799.739208,384.202477 C799.877749,378.701228 800.621184,373.325877 801.356544,367.972138 C801.88894,364.096072 802.418493,360.231043 802.731927,356.340284 C803.27656,349.377348 803.153866,342.368668 803.027284,335.359317 Z M587.700836,434.601589 C595.98321,424.76627 601.954606,413.506364 604.324287,401.285433 C606.380503,390.480098 608.38671,379.521027 606.425574,367.826084 C604.471945,356.17591 601.883204,345.331846 596.67799,335.105491 C590.281281,322.465334 581.356502,311.702705 570.805588,302.174166 C566.683321,298.431454 561.961471,295.667316 557.231496,292.919429 C556.462961,292.472947 555.694506,292.026529 554.928963,291.575534 C554.094625,291.081439 553.255759,290.568958 552.414348,290.055015 C548.442035,287.628682 544.405107,285.202801 540.067879,284.000402 C537.693294,283.341758 535.445975,282.394926 533.191015,281.451934 C530.200274,280.201249 527.19684,278.959545 523.933216,278.247064 C522.723338,277.979267 521.521317,277.619625 520.313254,277.260418 C517.649405,276.468344 514.958656,275.696444 512.084594,275.610651 C510.785391,275.571373 509.487938,275.564195 508.190233,275.557273 C505.288291,275.541794 502.384336,275.53381 499.442757,275.114551 C492.048936,274.070464 484.667619,274.806545 477.128578,275.583904 C473.883843,275.918472 470.609071,276.257031 467.289797,276.443472 C467.088623,276.454772 466.887549,276.465499 466.686575,276.475686 C466.523136,276.575199 466.357993,276.672851 466.190781,276.768286 C462.905876,278.643111 459.290528,279.395004 455.669302,280.186587 C452.529902,280.872846 449.380585,281.57489 446.345584,282.841512 C436.690171,286.977646 427.365,291.845652 418.451532,297.402998 C411.579088,301.586 405.851061,307.007045 400.049163,312.524218 C399.67002,312.884756 399.290505,313.245647 398.910256,313.606546 C391.495912,320.403112 385.014958,328.152752 379.617274,336.68513 C379.093865,337.540911 378.565365,338.396203 378.036354,339.252336 C375.101197,344.002497 372.157653,348.781361 369.934501,353.796378 C369.397798,355.010279 368.663997,356.161812 367.933412,357.325313 C365.803951,360.716609 363.841236,364.182139 364.442999,368.587863 C364.508376,369.066512 364.599937,369.526353 364.715019,369.969281 C365.124389,370.222779 365.590129,370.440583 366.125876,370.620058 C368.749993,371.499138 370.587461,370.632506 372.716043,369.263563 C372.859,369.171624 373.004021,369.078313 373.152033,368.98512 C379.557629,364.939984 386.369274,360.984777 393.820148,360.174899 C394.706501,360.078861 395.593609,359.98029 396.480663,359.881721 C408.451724,358.55151 420.435973,357.12014 432.628327,362.354537 C439.171165,365.162597 445.507004,367.833028 450.718531,372.518621 C453.066681,374.608518 454.754684,374.992226 456.087707,374.794741 C457.552957,374.577667 458.981524,373.549917 460.482654,371.05079 C465.518451,362.523508 472.734083,356.361817 481.189452,351.27134 C483.534564,349.857848 486.049801,349.083491 488.539685,348.294223 C490.626664,347.632672 492.701159,346.96729 494.686704,346.030543 C501.956938,342.591668 509.739059,343.175789 516.970207,344.674935 C517.151472,344.713389 517.332361,344.751684 517.514086,344.790155 C521.801593,345.697832 526.611939,346.658311 530.448857,349.122966 C537.521039,353.66937 544.580094,358.196101 548.982057,366.00696 C549.517476,366.95737 550.071189,367.893883 550.622556,368.826071 C553.207089,373.195698 555.861654,377.44022 555.663728,382.923481 C555.348147,387.038657 555.366657,391.171767 555.727392,395.363918 C556.553112,402.327484 553.505779,408.425878 550.060817,413.506513 C542.515977,424.644581 531.179102,430.098596 517.561182,430.691907 C516.0364,430.76048 514.769053,430.041813 513.521876,429.438221 C511.62714,428.521233 509.765594,427.730645 507.726502,427.790619 C503.222598,427.909549 500.267848,424.901803 497.587608,422.435449 C497.305711,422.176048 497.026903,421.919515 496.75031,421.668442 C492.448671,417.773594 489.820799,413.206162 488.513063,408.283096 C487.015217,402.644341 487.233125,396.555236 488.58981,390.484814 C490.351754,382.61541 496.464436,377.849779 504.308755,374.30806 C512.293726,370.73259 517.847417,374.187786 523.736666,377.543789 C524.343894,377.88982 524.954439,378.237706 525.57058,378.581971 C526.303084,378.994857 526.711407,379.698335 527.160616,380.330892 C527.579911,380.921327 528.001634,381.501739 528.484792,382.017933 C532.051945,385.828994 531.738706,390.353719 531.638705,394.827184 C531.62066,395.634387 531.60273,396.443214 531.600014,397.251135 C531.6,399.748199 530.522885,401.748932 528.789099,402.794363 C527.039269,403.849469 524.724365,403.877824 522.460737,402.729867 C519.264812,401.110823 517.953568,398.014484 516.846897,394.885849 C516.347723,393.483742 515.707593,391.893734 514.826821,390.838826 C513.765153,389.567259 512.420643,388.903971 510.779508,389.04928 C509.166005,389.193342 507.685878,389.957127 506.474332,391.148181 C505.311495,392.291351 504.407353,393.830629 503.8959,395.406059 C503.086482,397.858964 503.297195,400.928509 504.368052,403.834796 C505.412066,406.668233 507.248988,409.306749 509.483145,410.994378 C511.532474,412.542393 514.6506,413.513509 517.836488,413.849644 C521.400222,414.225645 524.979129,413.805034 527.074723,412.874344 C534.626004,409.524128 537.632196,403.098849 540.526978,396.436653 C541.11572,395.081693 541.705154,393.723392 542.347142,392.395834 C542.751273,391.589572 542.908158,390.703585 542.827299,389.839855 C542.748842,389.001796 542.446562,388.184692 541.929201,387.48192 C540.809512,385.822718 540.197602,383.949785 539.555003,382.07658 C538.550267,379.147729 537.485602,376.22345 535.264863,373.705789 C528.480065,366.012022 520.95536,360.54344 510.261753,360.629831 C504.115262,360.723876 498.035871,361.922302 492.313706,364.167794 C477.441906,369.729274 470.940255,381.899703 466.277123,394.884572 C463.863547,401.578216 464.249699,410.242782 466.526262,417.64082 C469.802266,428.507795 475.757528,438.376418 483.844499,446.339643 C494.138948,456.592467 506.491122,461.291878 519.712667,463.640989 C534.665035,466.299188 549.340985,462.654489 562.694687,455.54637 C572.374184,450.397702 580.531931,443.099213 587.700836,434.601589 Z M716.817826,547.097023 C720.42636,543.568552 723.734692,539.688091 727.031642,535.815571 C729.519262,532.893671 732.000761,529.976975 734.61136,527.232609 C737.764471,523.939156 740.48602,520.332732 743.199132,516.727937 C745.883706,513.161059 748.559039,509.595268 751.699724,506.375072 C754.526027,503.468783 756.894981,499.811173 759.19372,496.229212 C759.572149,495.639534 759.948968,495.052338 760.32623,494.471823 C762.998899,490.359476 765.392097,486.067295 767.7996,481.745437 C768.792967,479.962183 769.789045,478.173942 770.809505,476.391813 C771.381272,475.39328 771.958568,474.400379 772.53778,473.410808 C771.270517,472.884501 769.93142,472.555682 768.46994,472.655329 C765.982677,472.824915 764.015046,474.175909 762.164035,475.613547 C761.328052,476.262837 760.550513,476.972403 759.615655,477.201215 C754.059967,478.544198 748.781672,480.675338 743.51485,482.811631 C740.407356,484.072071 737.303515,485.332436 734.140979,486.41406 C723.736469,490.01422 713.236844,490.591123 702.751512,491.197111 C701.800987,491.252045 700.850519,491.306978 699.874601,491.365699 C688.472702,492.167627 677.033579,490.462899 666.361051,486.37139 C661.618158,484.519841 656.818169,482.411577 652.224672,480.352623 C644.339838,476.686912 637.135286,471.709221 630.844033,465.562763 C627.169963,462.250291 623.69274,458.725829 620.430163,455.007426 C617.57192,451.527715 615.033207,447.777137 612.495926,444.034976 C611.765651,442.957914 611.035701,441.881371 610.298989,440.811595 C608.958841,438.879264 607.512618,438.231406 606.331127,438.199213 C605.467839,438.17569 604.594548,438.430643 603.760974,439.135328 C603.287197,439.53585 602.798401,440.124201 602.35563,440.969123 C597.990346,449.309445 590.732176,454.859859 583.582833,460.419249 C583.128883,460.772245 582.675114,461.125101 582.222203,461.478452 C579.209004,463.832513 577.578546,466.651618 577.722854,469.668967 C577.889834,473.304918 577.79779,476.958164 577.707833,480.611169 C577.455862,490.843248 577.289711,501.048867 582.087471,511.014026 C582.716673,512.319489 583.327315,513.630753 583.936833,514.93943 C586.919899,521.344282 589.90535,527.668765 594.641105,532.956625 C598.761042,537.763551 603.434764,542.066563 608.608548,545.806107 C612.14657,548.251504 615.771663,550.511583 619.396175,552.7702 C620.677209,553.568478 621.958113,554.366656 623.234854,555.173157 C627.096228,557.604396 631.595322,560.097569 635.21943,560.447936 C638.237057,560.745927 641.027537,561.802431 643.808173,562.827172 C647.74516,564.278062 651.662754,565.65947 655.983859,565.539015 C659.45185,565.482886 662.916635,565.780026 666.346787,566.429937 C671.932282,567.4361 677.438792,566.838177 682.947073,566.205015 C686.122595,565.839997 689.297534,565.469538 692.49,565.469538 C693.87219,565.473171 695.223716,565.020729 696.445806,564.088684 C698.957671,561.938347 701.555917,559.890249 704.154671,557.840891 C708.499961,554.414226 712.844637,550.982059 716.817826,547.097023 Z M466.980573,456.527238 C467.963816,456.082358 468.947094,455.652952 469.930476,455.239539 C469.279564,454.408114 468.605514,453.552681 467.889709,452.672348 C467.065204,451.65833 466.261742,450.705287 465.485977,449.78528 C463.217058,447.094487 461.18623,444.713081 459.616411,441.825479 C459.185158,441.030618 458.918558,440.053273 458.633647,439.08821 C457.654536,435.771727 456.310743,433.054131 453.545762,432.265431 C451.859391,431.779748 450.22119,431.117803 448.581261,430.459785 C445.202439,429.104038 441.81482,427.791895 438.075947,427.593759 C430.514208,427.152077 422.947009,428.354956 415.895515,431.119235 C411.64732,432.607109 407.540754,434.473163 403.551152,436.739534 C399.48483,439.238213 396.139399,442.667136 392.839389,446.087368 C391.862046,447.100316 390.887628,448.110614 389.894966,449.08913 C382.675626,456.231114 378.922513,465.325276 375.250004,474.397705 C374.528336,476.180488 373.807824,477.960751 373.059292,479.721406 C372.280984,481.549961 371.855113,483.538438 371.439712,485.56241 C370.990056,487.753284 370.571326,490.004223 369.390159,492.030535 C368.59642,493.387348 368.120846,495.171373 368.078142,496.869467 C368.031122,498.739224 368.528009,500.454747 369.406619,501.58439 C371.342828,504.056068 372.620055,506.857324 373.912391,509.639979 C375.329383,512.691039 376.760117,515.723951 378.828154,518.413443 C380.906433,521.115206 382.905592,523.882062 384.90407,526.64734 C388.712733,531.917356 392.521458,537.179599 396.837964,541.997718 C398.137543,543.448317 399.420287,544.936435 400.714575,546.437708 C406.065717,552.644613 411.622959,559.048874 419.20377,564.10001 C421.074449,565.346455 422.973722,566.447451 424.890601,567.437175 C424.215024,565.44217 423.582839,563.408526 422.995048,561.337084 C416.926768,539.951761 417.000919,519.509449 424.426996,499.270707 C431.987716,478.682284 447.116884,465.514807 466.980573,456.527238 Z M410.868466,283.133834 C411.923787,282.51349 412.977651,281.887849 414.031504,281.262206 C418.653153,278.51846 423.273285,275.772124 428.158223,273.410265 C428.8695,273.063552 429.610395,272.74148 430.361798,272.413965 C435.010581,270.38769 439.686591,268.021685 441.048793,261.979346 C441.417029,260.328809 442.01185,258.687691 442.591697,257.068541 C443.375812,254.878994 444.129593,252.723768 444.450526,250.652296 C444.961931,247.30495 445.76701,243.996696 446.569636,240.685283 C448.422503,233.040862 450.213249,225.385018 448.926892,217.324022 C448.832687,216.750941 448.882772,216.161373 448.913192,215.570943 C448.959186,214.678218 448.989986,213.782799 448.867056,212.901493 C448.499143,210.205412 448.765481,207.525747 449.011139,204.838862 C449.204249,202.726728 449.392623,200.609813 449.349488,198.478941 C449.28176,195.092552 448.382181,191.996365 447.458329,188.919579 C446.737112,186.517646 445.998217,184.130042 445.834929,181.570379 C445.123203,170.471587 440.725294,160.357737 435.81275,150.604893 C433.400487,145.806945 430.461478,141.252498 427.527693,136.715194 C426.013095,134.372762 424.500779,132.034575 423.069617,129.666465 C416.849612,119.35014 408.205715,111.664871 399.521238,103.992989 C398.251141,102.870984 396.9808,101.748789 395.718276,100.617589 C391.525672,96.8705374 386.763258,93.7735715 381.992266,90.6831034 C380.136665,89.4811155 378.280579,88.279116 376.436163,87.0190211 C368.081251,81.452484 358.770766,77.4180715 349.467507,74.163543 C348.493418,73.8310895 347.513795,73.4944827 346.529464,73.1562606 C341.554289,71.4467588 336.459731,69.6973718 331.351498,68.2270747 C327.278745,67.0529912 323.140928,66.3270341 319.007799,65.6067795 C314.678152,64.8522789 310.35342,64.1057809 306.126344,62.7835433 C301.603379,61.3622023 296.940406,61.3870636 292.250597,61.4542044 C288.721818,61.5047235 285.17857,61.576188 281.627969,60.8218431 C275.78333,59.732748 269.742525,60.7401796 264.568368,63.6656238 C262.01141,65.023946 259.46383,66.4013565 256.915477,67.7792119 C253.185583,69.7959083 249.454053,71.8136162 245.677073,73.7764856 C237.373845,78.1397111 229.161958,82.7257081 221.277529,87.773429 C216.348188,90.9775008 211.668893,94.566216 206.990951,98.1571288 C204.046364,100.417472 201.101991,102.678195 198.079775,104.84755 C189.775984,110.885391 182.214677,117.792692 174.666812,124.694766 C171.433198,127.651714 168.201607,130.607067 164.897165,133.502728 C153.772146,143.412186 143.231528,153.95885 133.328459,165.089539 C123.621508,175.78857 114.767358,187.230104 106.846811,199.309236 L102.877962,205.39602 L109.036715,204.471532 C113.280735,203.773 116.756087,202.084014 120.107249,200.422168 C121.935592,199.515491 123.72252,198.621317 125.610251,197.974595 C127.820652,197.213142 129.969749,196.260392 132.114627,195.306045 C134.842135,194.092461 137.560664,192.870036 140.410917,192.133786 C141.697621,191.809366 142.996801,191.492582 144.299473,191.17492 C149.10095,190.004059 153.947396,188.817255 158.402175,187.223416 C162.2834,185.842963 166.331465,185.3693 170.353913,184.878697 C175.794424,184.215139 181.183568,183.508663 186.187512,181.055242 C192.260998,181.491378 198.347098,181.300029 204.439628,181.103615 C214.747402,180.771309 225.080667,180.398977 235.395653,183.38118 C238.807953,184.366321 242.364079,185.000382 245.945163,185.633976 C249.865558,186.327604 253.818108,187.018899 257.65557,188.259227 C263.83878,190.159529 269.904334,192.423393 275.820548,195.038988 C277.645262,195.882247 279.592093,196.618615 281.543253,197.354157 C284.463301,198.454946 287.400483,199.542598 289.860917,201.086975 C291.451501,202.083758 293.047608,203.072215 294.644716,204.061278 C305.601933,210.846904 316.625306,217.641293 325.644515,227.168263 C327.798744,229.444429 330.038087,231.64955 332.277533,233.854037 C337.115389,238.616372 341.962185,243.369199 345.880625,248.89555 C353.413836,259.554457 360.326307,270.587057 365.445525,282.758762 C366.20198,284.561745 367.03033,286.331976 367.858136,288.099418 C369.85726,292.367733 371.877538,296.612816 372.696165,301.373232 C372.951949,302.844845 373.421141,304.009532 374.011061,304.901046 C374.789629,306.077651 375.792335,306.834926 376.924424,307.237616 C378.83894,307.918618 381.345826,307.600173 384.064107,305.633209 C385.371921,304.698001 386.302908,303.535094 387.206586,302.353118 C387.723446,301.677085 388.225363,300.9912 388.893457,300.420692 C390.155444,299.337745 391.404618,298.2478 392.653878,297.157743 C398.43661,292.111947 404.213601,287.052271 410.868466,283.133834 Z M678.842619,256.227517 C690.121067,242.590859 698.728533,227.511678 702.017568,209.888189 C702.300688,208.372899 703.004062,207.016305 703.671338,205.663462 C704.727683,203.521818 705.7076,201.39016 705.864607,199.003657 C706.977868,181.562646 706.55404,164.116462 705.872717,146.680156 C705.928661,145.472774 705.687136,144.269976 704.986158,142.856854 C702.54837,139.222699 701.856272,135.050178 701.100257,130.905052 C700.359696,126.844666 699.583484,122.795547 697.65761,119.095326 C697.154464,118.129286 696.736491,117.111472 696.315452,116.094733 C695.153921,113.289825 693.926384,110.536246 691.613462,108.452249 C685.137878,102.6202 678.541883,96.9797158 671.655121,91.5798651 C663.651076,85.1565251 655.198245,79.3139283 646.342271,74.0857872 C641.475165,71.2689499 636.461158,68.6208419 631.455462,65.9778411 C628.216932,64.2679014 624.981991,62.5599872 621.793758,60.8084274 C614.54008,56.8192136 607.042594,53.3836739 599.546245,49.9511113 C594.90882,47.8276443 590.272083,45.7048742 585.696,43.4474935 C585.158828,43.1812795 584.604088,42.8963316 584.03825,42.6057855 C580.78982,40.9377847 577.200054,39.1693754 573.679158,38.8310036 C571.180338,38.5882826 568.912652,37.5787341 566.64723,36.612107 C563.16231,35.1251347 559.689146,33.7426173 555.756079,34.0130754 C552.855657,30.5417699 549.189706,30.4083245 544.505809,30.6839162 C543.96878,30.7155139 543.418342,30.7480112 542.854772,30.7717536 L536.224728,31.0510681 L541.39097,35.2158538 C546.795026,39.5723541 550.803539,44.5217194 554.784006,49.4112426 C555.488815,50.2770153 556.19245,51.1413169 556.918948,52.021332 C563.865594,60.2577463 569.924652,69.2034717 574.995696,78.7102179 C577.662413,83.7968274 580.040028,89.023412 582.408114,94.2259513 C582.997392,95.5205577 583.586019,96.8137234 584.178165,98.1029769 C586.306582,102.784386 588.003486,107.660546 589.243487,112.661231 C589.695325,114.505816 590.192482,116.359401 590.691365,118.218643 C592.779087,125.999175 594.968179,133.886004 593.667659,142.198687 C593.560537,142.912838 593.703569,143.692765 594.060436,144.81194 C595.379326,156.070898 594.890036,167.47036 592.603586,178.614748 C590.649439,188.942413 588.350377,199.427305 583.219395,209.141965 C582.085967,211.282242 580.972717,213.43484 579.859403,215.587648 C577.12617,220.872882 574.393625,226.160019 571.332108,231.300257 C565.295676,241.456011 557.227778,249.688196 549.070635,257.953446 C548.632557,258.399157 548.084165,258.812126 547.538781,259.23383 C545.178289,261.059019 543.4638,263.049555 543.61544,265.344377 C543.737548,267.231527 544.540301,268.309915 545.565715,269.033827 C546.546201,269.72602 547.924784,270.01575 549.396504,270.183867 C549.987188,270.251342 550.645128,270.20888 551.103767,270.51229 C551.318791,270.669954 551.594257,270.829122 552.475442,271.119161 L554.797105,272.445752 C565.054383,278.312715 575.25748,284.282666 583.627302,292.871487 C586.408736,295.794651 590.342394,297.330434 594.365578,297.066057 C601.039868,296.764223 607.673765,295.854024 614.1837,294.346747 C621.050427,292.975502 627.781871,290.993906 634.296945,288.425309 C651.619971,281.619345 666.944059,270.543345 678.842619,256.227517 Z M552.646555,233.24073 C557.506095,226.964667 562.374907,220.651979 566.062435,213.643639 C571.712927,202.873988 576.145594,191.623632 578.311056,179.499086 C578.709598,177.250184 579.204584,175.027041 579.698833,172.803611 C580.796254,167.866748 581.878849,162.927847 582.019077,157.767448 C582.314669,147.432019 580.787411,137.489089 578.656191,127.383641 C577.204012,120.531231 575.24766,113.797976 572.802637,107.236583 C569.010372,97.154979 564.257435,87.4698359 558.607236,78.308615 C553.64973,70.0089471 547.8794,62.2242848 541.340846,55.0259263 C533.303595,46.5819 524.743205,38.6517437 515.710373,31.282421 C508.653781,25.4856171 500.224893,21.5856063 491.230869,19.9577425 C486.142721,18.9406965 480.811561,18.890331 475.510162,18.8558831 C473.842545,18.8450472 472.178212,18.8344031 470.526544,18.7904238 C452.059348,18.2899575 433.571072,18.3594715 415.122497,19.6128869 C414.227712,19.5560176 413.332444,19.6437672 411.991966,20.05347 C407.446355,22.3262755 402.559554,22.4922962 397.709592,22.7255558 C394.208028,22.8939641 390.715294,23.0753072 387.330218,23.853015 C379.94995,25.5738447 372.44755,26.6775252 364.892479,27.1545055 C363.767007,27.2271142 362.659116,27.7113355 361.555625,28.2840564 C361.211431,28.4626963 360.867494,28.6478177 360.513933,28.7818287 C359.904655,29.0102911 359.26548,29.3170288 358.625709,29.6285947 C357.870179,29.9965346 357.101151,30.6438512 356.401786,30.4945965 C350.706937,29.2777483 345.706236,31.1066409 340.705339,33.0759351 C338.243973,34.0451923 335.78704,35.0318167 333.206223,35.4757172 C328.144804,36.3462813 323.027195,38.4934403 317.870162,40.6843181 C315.250696,41.7971537 312.619409,42.9167583 309.975552,43.8529099 L298.947101,47.7579255 L310.608393,48.7013957 C311.425448,48.7675005 312.253681,48.7905807 313.081336,48.8123959 C314.99047,48.8627165 316.935591,48.806403 318.604885,49.785804 C322.846886,52.2880383 327.55681,53.1436598 332.276995,53.9464818 C334.563198,54.3353254 336.84749,54.7189088 339.059002,55.3449988 C348.032631,57.8971774 356.812272,61.0975728 365.339175,64.9260708 C376.380397,69.8071504 386.84289,75.9041905 396.532726,83.1041629 C410.916381,93.9559285 423.716678,106.083257 434.311371,120.584373 C440.445886,129.004299 444.860519,138.325997 449.297909,147.662324 C449.958661,149.052556 450.619651,150.443272 451.286354,151.831703 C456.02434,161.62041 458.215775,171.929377 460.436683,182.265956 C460.517115,182.640305 460.597557,183.014701 460.678125,183.38912 C462.206789,191.160527 462.83542,199.083422 462.550418,207.043835 C462.517773,208.829264 462.501418,210.614065 462.485096,212.39918 C462.437018,217.657202 462.391643,222.91817 461.911764,228.206719 C461.754849,229.8209 461.656453,231.434863 461.558771,233.046101 C461.296255,237.376268 461.070426,241.694202 459.480947,245.907024 C458.636752,248.150391 458.293551,250.594958 457.973489,253.039601 C457.862406,253.888055 457.751917,254.735712 457.613584,255.571138 C457.415291,256.754027 457.452669,257.739624 457.627526,258.530824 C457.901707,259.771451 458.509727,260.642839 459.268097,261.234367 C460.078916,261.866806 461.113418,262.213684 462.340689,262.152374 C463.196339,262.109628 464.176463,261.854364 465.211837,261.328651 C470.898585,258.445024 476.986855,258.415794 482.994227,258.307746 C484.861917,258.274154 486.724673,258.240025 488.571226,258.135546 C499.192001,257.57556 510.01418,257.096033 520.824051,261.419567 C522.174468,261.630573 523.54921,261.24576 524.593395,260.366238 C525.093972,259.956542 525.595262,259.547008 526.096857,259.137225 C530.520693,255.52312 534.967453,251.889108 539.243584,248.048498 C544.150934,243.529089 548.637064,238.57275 552.646555,233.24073 Z M418.416752,417.850647 C419.40763,417.72814 420.359768,417.392732 421.208037,416.868009 C428.440368,413.039089 436.106329,414.396793 443.514139,415.739458 C446.361463,416.265256 447.655907,415.727251 448.439523,415.101454 C449.374171,414.355042 449.92805,413.124924 449.969713,410.377443 C449.993754,408.967303 449.965101,407.549647 449.935847,406.131571 C449.860372,402.472981 449.749507,398.805137 450.76674,395.186002 C451.611538,392.215169 450.263104,389.786613 448.072532,387.507234 C439.437072,378.565615 429.483865,372.424467 416.704281,371.634303 C409.035982,371.163534 400.809899,370.981614 394.077836,373.408422 C381.980537,377.625096 370.904916,384.336319 361.544802,393.129792 C356.244901,398.239612 352.570912,403.995406 353.36081,412.461775 C353.895009,418.220027 353.666766,424.067913 353.446187,429.903187 C353.352298,432.386979 353.258697,434.868611 353.220301,437.340714 C353.129923,443.621882 354.400036,449.597163 355.690834,455.5696 C356.697985,460.229621 357.715055,464.887552 357.983877,469.708719 L358.511621,479.173507 L362.720119,470.679434 C364.363968,467.361629 366.125898,464.194521 367.870455,461.056801 C369.012488,459.002766 370.147395,456.96119 371.253331,454.87269 C376.653334,444.370157 384.444497,435.282677 393.999256,428.342231 C401.320302,423.040136 408.61264,417.973535 418.416752,417.850647 Z" id="Combined-Shape"></path>
                </g>
            </g>
        </g>
    </g>
</svg>